<svg width="161" height="47" viewBox="0 0 161 47" fill="none" xmlns="http://www.w3.org/2000/svg">
<path d="M160.106 41.5796C160.106 44.0843 158.056 46.1131 155.521 46.1131H5.48521C2.95131 46.1131 0.894531 44.0843 0.894531 41.5796V5.42617C0.894531 2.92266 2.95131 0.886719 5.48521 0.886719H155.52C158.056 0.886719 160.104 2.92266 160.104 5.42617L160.106 41.5796Z" fill="black"/>
<path d="M155.037 0.941471C157.798 0.941471 160.044 3.15488 160.044 5.875V41.125C160.044 43.8451 157.798 46.0585 155.037 46.0585H5.96296C3.20211 46.0585 0.955565 43.8451 0.955565 41.125V5.875C0.955565 3.15488 3.20211 0.941471 5.96296 0.941471H155.037ZM155.037 3.8147e-06H5.96296C2.68482 3.8147e-06 0 2.64522 0 5.875V41.125C0 44.3548 2.68482 47 5.96296 47H155.037C158.315 47 161 44.3548 161 41.125V5.875C161 2.64522 158.315 3.8147e-06 155.037 3.8147e-06Z" fill="#A6A6A6"/>
<path d="M35.9303 23.2464C35.8957 19.4594 39.0775 17.617 39.223 17.5312C37.421 14.9427 34.628 14.589 33.6465 14.5608C31.3006 14.3176 29.0252 15.9438 27.8302 15.9438C26.6114 15.9438 24.7712 14.5843 22.7879 14.6243C20.2358 14.663 17.8482 16.1188 16.5387 18.3795C13.8363 22.9891 15.8518 29.7629 18.4409 33.4889C19.7361 35.3136 21.2495 37.3511 23.2304 37.2794C25.1683 37.2007 25.8922 36.0621 28.2309 36.0621C30.5481 36.0621 31.2279 37.2794 33.2481 37.2336C35.328 37.2007 36.6375 35.4006 37.8873 33.5594C39.384 31.4679 39.9851 29.4081 40.0089 29.3024C39.96 29.2859 35.9696 27.7854 35.9303 23.2464Z" fill="white"/>
<path d="M32.114 12.1098C33.1563 10.8255 33.8695 9.07825 33.6715 7.30518C32.1629 7.37098 30.2762 8.3333 29.1897 9.58938C28.2285 10.6962 27.3698 12.5104 27.5917 14.2165C29.2863 14.3411 31.0263 13.3741 32.114 12.1098Z" fill="white"/>
<path d="M58.4969 11.7605C58.4969 13.1434 58.0759 14.1845 57.2351 14.8836C56.4564 15.5287 55.3496 15.8518 53.9161 15.8518C53.2054 15.8518 52.5971 15.8213 52.0879 15.7602V8.20374C52.7522 8.09799 53.4677 8.04395 54.2405 8.04395C55.606 8.04395 56.6353 8.33652 57.3293 8.92167C58.1069 9.5832 58.4969 10.5291 58.4969 11.7605ZM57.1791 11.7945C57.1791 10.898 56.9382 10.2106 56.4564 9.73124C55.9746 9.25302 55.2709 9.01332 54.3443 9.01332C53.9507 9.01332 53.6156 9.03917 53.3377 9.09322V14.8378C53.4916 14.8613 53.773 14.8719 54.1821 14.8719C55.1385 14.8719 55.8768 14.6098 56.3967 14.0858C56.9167 13.5617 57.1791 12.798 57.1791 11.7945Z" fill="white"/>
<path d="M65.4842 12.9683C65.4842 13.8202 65.2374 14.5181 64.7436 15.0657C64.226 15.6285 63.5403 15.9093 62.684 15.9093C61.8587 15.9093 61.2016 15.6402 60.7115 15.0997C60.2225 14.5604 59.978 13.8801 59.978 13.0599C59.978 12.2022 60.2297 11.4984 60.7353 10.952C61.241 10.4056 61.9208 10.1318 62.777 10.1318C63.6023 10.1318 64.2654 10.4009 64.7675 10.9402C65.2445 11.4643 65.4842 12.1411 65.4842 12.9683ZM64.1879 13.0082C64.1879 12.4971 64.0758 12.0588 63.8528 11.6934C63.5904 11.2516 63.2171 11.0307 62.7317 11.0307C62.2296 11.0307 61.848 11.2516 61.5856 11.6934C61.3614 12.0588 61.2505 12.5042 61.2505 13.0306C61.2505 13.5417 61.3626 13.98 61.5856 14.3454C61.8564 14.7872 62.2332 15.0081 62.7198 15.0081C63.1968 15.0081 63.5713 14.7837 63.8408 14.3336C64.0722 13.9612 64.1879 13.5194 64.1879 13.0082Z" fill="white"/>
<path d="M74.8534 10.2446L73.0943 15.7836H71.9495L71.2208 13.3784C71.0359 12.7779 70.8857 12.181 70.7688 11.5888H70.7461C70.6376 12.1975 70.4873 12.7932 70.2941 13.3784L69.5201 15.7836H68.3621L66.708 10.2446H67.9924L68.6281 12.8778C68.7819 13.5006 68.9083 14.0939 69.0097 14.6556H69.0324C69.1254 14.1926 69.2792 13.6028 69.4963 12.8896L70.2941 10.2458H71.3126L72.0771 12.8332C72.2619 13.4641 72.4122 14.0716 72.5279 14.6568H72.5624C72.6471 14.0869 72.7747 13.4794 72.9441 12.8332L73.6262 10.2458H74.8534V10.2446Z" fill="white"/>
<path d="M81.3326 15.7837H80.0827V12.6112C80.0827 11.6336 79.7059 11.1448 78.9498 11.1448C78.5789 11.1448 78.2795 11.2787 78.047 11.5478C77.8168 11.8169 77.6999 12.1341 77.6999 12.4972V15.7825H76.4501V11.8275C76.4501 11.341 76.4346 10.8134 76.4048 10.2424H77.5032L77.5616 11.1084H77.5962C77.7417 10.8393 77.9587 10.6172 78.2438 10.4398C78.5825 10.233 78.9617 10.1284 79.3767 10.1284C79.9015 10.1284 80.3379 10.2953 80.685 10.6301C81.1167 11.0402 81.3326 11.6524 81.3326 12.4655V15.7837V15.7837Z" fill="white"/>
<path d="M84.7794 15.7836H83.5308V7.70312H84.7794V15.7836Z" fill="white"/>
<path d="M92.1376 12.9683C92.1376 13.8202 91.8907 14.5181 91.3969 15.0657C90.8794 15.6285 90.1924 15.9093 89.3373 15.9093C88.5109 15.9093 87.8538 15.6402 87.3648 15.0997C86.8758 14.5604 86.6313 13.8801 86.6313 13.0599C86.6313 12.2022 86.883 11.4984 87.3886 10.952C87.8943 10.4056 88.5741 10.1318 89.4292 10.1318C90.2556 10.1318 90.9175 10.4009 91.4208 10.9402C91.8978 11.4643 92.1376 12.1411 92.1376 12.9683ZM90.84 13.0082C90.84 12.4971 90.7279 12.0588 90.5049 11.6934C90.2437 11.2516 89.8692 11.0307 89.385 11.0307C88.8818 11.0307 88.5001 11.2516 88.239 11.6934C88.0148 12.0588 87.9038 12.5042 87.9038 13.0306C87.9038 13.5417 88.0159 13.98 88.239 14.3454C88.5097 14.7872 88.8865 15.0081 89.3731 15.0081C89.8502 15.0081 90.2234 14.7837 90.493 14.3336C90.7255 13.9612 90.84 13.5194 90.84 13.0082Z" fill="white"/>
<path d="M98.1866 15.7836H97.0644L96.9714 15.1456H96.9368C96.5528 15.6543 96.0054 15.9093 95.2946 15.9093C94.7639 15.9093 94.3346 15.7413 94.0114 15.4076C93.718 15.1044 93.5713 14.7273 93.5713 14.2796C93.5713 13.6028 93.8575 13.087 94.4335 12.7298C95.0084 12.3726 95.8169 12.1975 96.8581 12.2057V12.1023C96.8581 11.3726 96.4693 11.0084 95.6905 11.0084C95.136 11.0084 94.647 11.1459 94.2248 11.4185L93.9708 10.6101C94.4932 10.2916 95.1384 10.1318 95.8992 10.1318C97.3685 10.1318 98.1055 10.8956 98.1055 12.4231V14.4629C98.1055 15.0163 98.1329 15.4569 98.1866 15.7836ZM96.8891 13.8801V13.0259C95.5104 13.0024 94.8211 13.3748 94.8211 14.1421C94.8211 14.4312 94.8998 14.6474 95.0608 14.7919C95.2218 14.9364 95.427 15.0081 95.6714 15.0081C95.9457 15.0081 96.2021 14.9223 96.4359 14.7519C96.6708 14.5804 96.8151 14.363 96.8688 14.0963C96.8819 14.0364 96.8891 13.9635 96.8891 13.8801Z" fill="white"/>
<path d="M105.288 15.7836H104.179L104.12 14.8941H104.086C103.732 15.5709 103.128 15.9093 102.28 15.9093C101.603 15.9093 101.039 15.6473 100.592 15.1232C100.144 14.5992 99.9214 13.9189 99.9214 13.0834C99.9214 12.1869 100.163 11.4608 100.65 10.9062C101.121 10.3892 101.698 10.1307 102.385 10.1307C103.14 10.1307 103.669 10.3809 103.969 10.8827H103.993V7.70312H105.244V14.2913C105.244 14.8307 105.258 15.3277 105.288 15.7836ZM103.993 13.4477V12.5241C103.993 12.3643 103.981 12.2351 103.958 12.1364C103.888 11.8403 103.736 11.5912 103.506 11.3903C103.274 11.1893 102.993 11.0883 102.67 11.0883C102.204 11.0883 101.839 11.2704 101.571 11.6358C101.305 12.0013 101.17 12.4677 101.17 13.0376C101.17 13.5852 101.298 14.0293 101.554 14.3712C101.825 14.7355 102.19 14.9176 102.646 14.9176C103.057 14.9176 103.385 14.766 103.634 14.4617C103.875 14.1809 103.993 13.8425 103.993 13.4477Z" fill="white"/>
<path d="M115.977 12.9683C115.977 13.8202 115.731 14.5181 115.237 15.0657C114.719 15.6285 114.035 15.9093 113.177 15.9093C112.353 15.9093 111.696 15.6402 111.205 15.0997C110.716 14.5604 110.471 13.8801 110.471 13.0599C110.471 12.2022 110.723 11.4984 111.228 10.952C111.734 10.4056 112.414 10.1318 113.271 10.1318C114.095 10.1318 114.76 10.4009 115.261 10.9402C115.738 11.4643 115.977 12.1411 115.977 12.9683ZM114.682 13.0082C114.682 12.4971 114.57 12.0588 114.347 11.6934C114.084 11.2516 113.711 11.0307 113.225 11.0307C112.724 11.0307 112.342 11.2516 112.079 11.6934C111.855 12.0588 111.744 12.5042 111.744 13.0306C111.744 13.5417 111.856 13.98 112.079 14.3454C112.35 14.7872 112.726 15.0081 113.213 15.0081C113.69 15.0081 114.066 14.7837 114.335 14.3336C114.565 13.9612 114.682 13.5194 114.682 13.0082Z" fill="white"/>
<path d="M122.698 15.7837H121.449V12.6112C121.449 11.6336 121.072 11.1448 120.315 11.1448C119.944 11.1448 119.645 11.2787 119.413 11.5478C119.182 11.8169 119.066 12.1341 119.066 12.4972V15.7825H117.815V11.8275C117.815 11.341 117.801 10.8134 117.771 10.2424H118.868L118.927 11.1084H118.961C119.108 10.8393 119.325 10.6172 119.609 10.4398C119.949 10.233 120.327 10.1284 120.743 10.1284C121.266 10.1284 121.703 10.2953 122.05 10.6301C122.483 11.0402 122.698 11.6524 122.698 12.4655V15.7837V15.7837Z" fill="white"/>
<path d="M131.109 11.1671H129.733V13.8578C129.733 14.5417 129.977 14.8836 130.461 14.8836C130.686 14.8836 130.872 14.8648 131.018 14.826L131.051 15.7601C130.804 15.8518 130.479 15.8976 130.08 15.8976C129.586 15.8976 129.202 15.7496 128.924 15.4535C128.645 15.1574 128.507 14.6592 128.507 13.96V11.1671H127.685V10.2447H128.507V9.22948L129.732 8.86523V10.2435H131.108V11.1671H131.109Z" fill="white"/>
<path d="M137.726 15.7836H136.475V12.6346C136.475 11.6417 136.098 11.1447 135.343 11.1447C134.763 11.1447 134.367 11.4326 134.15 12.0083C134.113 12.1294 134.092 12.2774 134.092 12.4513V15.7824H132.843V7.70312H134.092V11.0413H134.116C134.509 10.4338 135.073 10.1307 135.804 10.1307C136.322 10.1307 136.75 10.2975 137.09 10.6324C137.513 11.0495 137.726 11.6699 137.726 12.4901V15.7836V15.7836Z" fill="white"/>
<path d="M144.551 12.7519C144.551 12.9728 144.534 13.1585 144.504 13.31H140.756C140.773 13.8576 140.952 14.2747 141.299 14.5638C141.616 14.8223 142.025 14.9515 142.526 14.9515C143.08 14.9515 143.586 14.8646 144.042 14.6895L144.237 15.5449C143.704 15.7728 143.077 15.8868 142.351 15.8868C141.48 15.8868 140.794 15.6342 140.298 15.1289C139.8 14.6237 139.553 13.9457 139.553 13.095C139.553 12.2596 139.783 11.564 140.247 11.0094C140.731 10.4172 141.386 10.1211 142.212 10.1211C143.021 10.1211 143.635 10.4172 144.05 11.0094C144.385 11.4794 144.551 12.061 144.551 12.7519ZM143.358 12.4335C143.368 12.0681 143.286 11.7532 143.116 11.4876C142.899 11.1457 142.569 10.9741 142.122 10.9741C141.714 10.9741 141.381 11.141 141.127 11.4759C140.919 11.7426 140.797 12.061 140.756 12.4335H143.358Z" fill="white"/>
<path d="M63.9764 37.0173H61.268L59.7844 32.4242H54.6277L53.2145 37.0173H50.5776L55.6867 21.3804H58.8423L63.9764 37.0173ZM59.3372 30.4972L57.9956 26.4141C57.8536 25.9969 57.5877 25.0146 57.1953 23.4683H57.1476C56.9914 24.1334 56.7398 25.1157 56.3939 26.4141L55.0761 30.4972H59.3372V30.4972Z" fill="white"/>
<path d="M77.115 31.2412C77.115 33.1588 76.589 34.6746 75.5372 35.7873C74.595 36.7778 73.4251 37.2725 72.0286 37.2725C70.5211 37.2725 69.4383 36.739 68.7788 35.6721H68.7311V41.6118H66.1885V29.454C66.1885 28.2485 66.1563 27.0112 66.0942 25.7422H68.3303L68.4723 27.5294H68.52C69.3679 26.1828 70.6547 25.5107 72.3816 25.5107C73.7316 25.5107 74.8586 26.036 75.7602 27.0876C76.6642 28.1404 77.115 29.5245 77.115 31.2412ZM74.5247 31.3329C74.5247 30.2354 74.2742 29.3307 73.771 28.6186C73.2212 27.876 72.483 27.5047 71.5575 27.5047C70.9302 27.5047 70.3601 27.7115 69.8509 28.1192C69.3405 28.5305 69.0065 29.0675 68.8503 29.7325C68.7716 30.0427 68.7322 30.2965 68.7322 30.4963V32.3763C68.7322 33.1964 68.9875 33.8885 69.4979 34.4537C70.0083 35.0188 70.6714 35.3008 71.4871 35.3008C72.4448 35.3008 73.1902 34.9366 73.7232 34.2104C74.2575 33.4831 74.5247 32.5243 74.5247 31.3329Z" fill="white"/>
<path d="M90.2779 31.2412C90.2779 33.1588 89.7519 34.6746 88.6989 35.7873C87.7579 36.7778 86.588 37.2725 85.1914 37.2725C83.684 37.2725 82.6011 36.739 81.9428 35.6721H81.8951V41.6118H79.3525V29.454C79.3525 28.2485 79.3203 27.0112 79.2583 25.7422H81.4944L81.6363 27.5294H81.684C82.5308 26.1828 83.8176 25.5107 85.5457 25.5107C86.8945 25.5107 88.0215 26.036 88.9255 27.0876C89.8259 28.1404 90.2779 29.5245 90.2779 31.2412ZM87.6875 31.3329C87.6875 30.2354 87.4359 29.3307 86.9326 28.6186C86.3828 27.876 85.647 27.5047 84.7204 27.5047C84.0919 27.5047 83.523 27.7115 83.0126 28.1192C82.5022 28.5305 82.1694 29.0675 82.0132 29.7325C81.9357 30.0427 81.8951 30.2965 81.8951 30.4963V32.3763C81.8951 33.1964 82.1503 33.8885 82.6584 34.4537C83.1688 35.0177 83.8319 35.3008 84.65 35.3008C85.6077 35.3008 86.353 34.9366 86.8861 34.2104C87.4204 33.4831 87.6875 32.5243 87.6875 31.3329Z" fill="white"/>
<path d="M104.994 32.6323C104.994 33.9624 104.526 35.0446 103.585 35.88C102.551 36.793 101.111 37.2489 99.2617 37.2489C97.5539 37.2489 96.1848 36.9246 95.1484 36.2748L95.7376 34.1868C96.8538 34.8519 98.0786 35.1856 99.4132 35.1856C100.371 35.1856 101.116 34.9717 101.652 34.5464C102.185 34.121 102.451 33.55 102.451 32.8379C102.451 32.2034 102.231 31.6688 101.791 31.2352C101.353 30.8016 100.622 30.3986 99.6016 30.0261C96.8228 29.0051 95.4347 27.5093 95.4347 25.5423C95.4347 24.2569 95.9212 23.2029 96.8956 22.3828C97.8664 21.5614 99.1615 21.1514 100.781 21.1514C102.225 21.1514 103.425 21.3993 104.383 21.894L103.747 23.9361C102.853 23.4567 101.841 23.217 100.71 23.217C99.8151 23.217 99.1162 23.4344 98.6153 23.8668C98.1919 24.2534 97.9797 24.7245 97.9797 25.2827C97.9797 25.9007 98.2218 26.4118 98.7083 26.8137C99.1317 27.185 99.9009 27.5868 101.017 28.0204C102.383 28.5621 103.386 29.1954 104.031 29.9216C104.674 30.6454 104.994 31.5513 104.994 32.6323Z" fill="white"/>
<path d="M113.401 27.622H110.599V33.0964C110.599 34.4887 111.092 35.1843 112.082 35.1843C112.537 35.1843 112.913 35.1456 113.212 35.068L113.282 36.9703C112.781 37.1548 112.121 37.2476 111.305 37.2476C110.3 37.2476 109.516 36.9457 108.949 36.3429C108.385 35.7389 108.101 34.7261 108.101 33.3032V27.6197H106.432V25.7397H108.101V23.6752L110.599 22.9326V25.7397H113.401V27.622Z" fill="white"/>
<path d="M126.046 31.2868C126.046 33.02 125.543 34.4429 124.539 35.5556C123.486 36.7012 122.088 37.2723 120.346 37.2723C118.666 37.2723 117.329 36.7236 116.332 35.6261C115.335 34.5287 114.837 33.1433 114.837 31.4737C114.837 29.7264 115.35 28.2953 116.379 27.1826C117.406 26.0687 118.792 25.5117 120.534 25.5117C122.213 25.5117 123.564 26.0604 124.584 27.1591C125.56 28.2248 126.046 29.6007 126.046 31.2868ZM123.408 31.3679C123.408 30.328 123.183 29.4362 122.726 28.6924C122.193 27.7924 121.431 27.3435 120.443 27.3435C119.421 27.3435 118.645 27.7936 118.112 28.6924C117.655 29.4374 117.43 30.3433 117.43 31.4149C117.43 32.4548 117.655 33.3466 118.112 34.0892C118.662 34.9893 119.43 35.4381 120.421 35.4381C121.391 35.4381 122.153 34.9799 122.703 34.0657C123.172 33.3078 123.408 32.4066 123.408 31.3679Z" fill="white"/>
<path d="M134.311 27.9453C134.059 27.8995 133.791 27.876 133.509 27.876C132.615 27.876 131.923 28.2085 131.437 28.8748C131.013 29.4623 130.801 30.2049 130.801 31.1014V37.0175H128.26L128.283 29.2931C128.283 27.9935 128.251 26.8103 128.188 25.7434H130.403L130.496 27.9007H130.566C130.834 27.1593 131.258 26.5624 131.837 26.1147C132.404 25.7117 133.016 25.5107 133.675 25.5107C133.91 25.5107 134.122 25.5272 134.311 25.5566V27.9453Z" fill="white"/>
<path d="M145.682 30.8461C145.682 31.2949 145.652 31.6733 145.589 31.9823H137.961C137.991 33.0962 138.36 33.9481 139.068 34.5356C139.711 35.0608 140.542 35.324 141.563 35.324C142.692 35.324 143.723 35.1466 144.649 34.7906L145.048 36.5296C143.965 36.9949 142.686 37.2263 141.211 37.2263C139.437 37.2263 138.044 36.7117 137.03 35.6836C136.019 34.6554 135.512 33.2748 135.512 31.5429C135.512 29.8426 135.983 28.4268 136.926 27.2976C137.914 26.092 139.248 25.4893 140.927 25.4893C142.577 25.4893 143.825 26.092 144.673 27.2976C145.345 28.2552 145.682 29.4396 145.682 30.8461ZM143.258 30.1963C143.274 29.4537 143.109 28.8122 142.764 28.2705C142.324 27.5737 141.648 27.2259 140.738 27.2259C139.906 27.2259 139.23 27.5655 138.714 28.247C138.29 28.7887 138.039 29.4384 137.961 30.1951H143.258V30.1963Z" fill="white"/>
</svg>
