<svg width="159" height="47" viewBox="0 0 159 47" fill="none" xmlns="http://www.w3.org/2000/svg">
<path d="M153.111 47H5.88889C2.65147 47 0 44.3548 0 41.125V5.875C0 2.64522 2.65147 1.90735e-06 5.88889 1.90735e-06H153.111C156.349 1.90735e-06 159 2.64522 159 5.875V41.125C159 44.3548 156.349 47 153.111 47Z" fill="black"/>
<path d="M153.111 0.941469C155.838 0.941469 158.056 3.15488 158.056 5.875V41.125C158.056 43.8451 155.838 46.0585 153.111 46.0585H5.88889C3.16233 46.0585 0.943694 43.8451 0.943694 41.125V5.875C0.943694 3.15488 3.16233 0.941469 5.88889 0.941469H153.111ZM153.111 1.90735e-06H5.88889C2.65147 1.90735e-06 0 2.64522 0 5.875V41.125C0 44.3548 2.65147 47 5.88889 47H153.111C156.349 47 159 44.3548 159 41.125V5.875C159 2.64522 156.349 1.90735e-06 153.111 1.90735e-06Z" fill="#A6A6A6"/>
<path d="M12.2903 8.85792C11.9444 9.21924 11.7441 9.78177 11.7441 10.5103V36.4954C11.7441 37.2239 11.9444 37.7864 12.2903 38.1477L12.3757 38.2271L26.9713 23.6717V23.328L12.3757 8.77274L12.2903 8.85792Z" fill="url(#paint0_linear_0_9396)"/>
<path d="M31.831 28.5259L26.9712 23.6717V23.328L31.8369 18.4738L31.9458 18.5369L37.7081 21.8078C39.3526 22.7361 39.3526 24.2636 37.7081 25.1977L31.9458 28.4627L31.831 28.5259Z" fill="url(#paint1_linear_0_9396)"/>
<path d="M31.9462 28.4627L26.9715 23.4998L12.2905 38.1476C12.8367 38.7204 13.7274 38.7894 14.7403 38.2166L31.9462 28.4627Z" fill="url(#paint2_linear_0_9396)"/>
<path d="M31.9462 18.5371L14.7403 8.78313C13.7274 8.21619 12.8367 8.28522 12.2905 8.85804L26.9715 23.5L31.9462 18.5371Z" fill="url(#paint3_linear_0_9396)"/>
<path d="M55.8473 12.0364C55.8473 13.0176 55.5529 13.8033 54.9728 14.3894C54.3059 15.0841 53.4373 15.4337 52.3729 15.4337C51.3556 15.4337 50.487 15.0782 49.7744 14.3776C49.0604 13.6667 48.7041 12.7943 48.7041 11.75C48.7041 10.7057 49.0604 9.83331 49.7744 9.12831C50.487 8.42184 51.3556 8.06641 52.3729 8.06641C52.8793 8.06641 53.3622 8.17069 53.823 8.36456C54.2823 8.55991 54.6563 8.82428 54.9272 9.15034L54.3118 9.77016C53.8392 9.2135 53.1959 8.93884 52.3729 8.93884C51.6309 8.93884 50.9875 9.19734 50.4413 9.71875C49.901 10.2416 49.6301 10.9187 49.6301 11.75C49.6301 12.5813 49.901 13.2643 50.4413 13.7872C50.9875 14.3027 51.6309 14.5671 52.3729 14.5671C53.1605 14.5671 53.823 14.3027 54.3457 13.7813C54.6902 13.4362 54.886 12.9603 54.9375 12.3522H52.3729V11.5033H55.7943C55.8355 11.6869 55.8473 11.8646 55.8473 12.0364Z" fill="white" stroke="white" stroke-width="0.16" stroke-miterlimit="10"/>
<path d="M61.2756 9.09312H58.0617V11.3256H60.959V12.1746H58.0617V14.4071H61.2756V15.2722H57.1519V8.22803H61.2756V9.09312Z" fill="white" stroke="white" stroke-width="0.16" stroke-miterlimit="10"/>
<path d="M65.1062 15.2722H64.1964V9.09312H62.2251V8.22803H67.079V9.09312H65.1062V15.2722Z" fill="white" stroke="white" stroke-width="0.16" stroke-miterlimit="10"/>
<path d="M70.5918 15.2722V8.22803H71.5002V15.2722H70.5918Z" fill="white" stroke="white" stroke-width="0.16" stroke-miterlimit="10"/>
<path d="M75.5266 15.2722H74.6242V9.09312H72.6455V8.22803H77.5053V9.09312H75.5266V15.2722Z" fill="white" stroke="white" stroke-width="0.16" stroke-miterlimit="10"/>
<path d="M86.6948 14.3659C85.9984 15.0782 85.1357 15.4337 84.1066 15.4337C83.0716 15.4337 82.2089 15.0782 81.5125 14.3659C80.8177 13.655 80.4717 12.7826 80.4717 11.75C80.4717 10.7175 80.8177 9.84506 81.5125 9.13419C82.2089 8.42184 83.0716 8.06641 84.1066 8.06641C85.1298 8.06641 85.9925 8.42184 86.6889 9.14006C87.3897 9.85681 87.7356 10.7234 87.7356 11.75C87.7356 12.7826 87.3897 13.655 86.6948 14.3659ZM82.1853 13.7754C82.7095 14.3027 83.3469 14.5671 84.1066 14.5671C84.8604 14.5671 85.5037 14.3027 86.022 13.7754C86.5446 13.2482 86.8096 12.5711 86.8096 11.75C86.8096 10.929 86.5446 10.2519 86.022 9.72463C85.5037 9.19734 84.8604 8.93297 84.1066 8.93297C83.3469 8.93297 82.7095 9.19734 82.1853 9.72463C81.6627 10.2519 81.3977 10.929 81.3977 11.75C81.3977 12.5711 81.6627 13.2482 82.1853 13.7754Z" fill="white" stroke="white" stroke-width="0.16" stroke-miterlimit="10"/>
<path d="M89.0122 15.2722V8.22803H90.1164L93.5496 13.7065H93.5893L93.5496 12.3523V8.22803H94.458V15.2722H93.5098L89.9147 9.52346H89.8749L89.9147 10.8835V15.2722H89.0122Z" fill="white" stroke="white" stroke-width="0.16" stroke-miterlimit="10"/>
<path d="M80.2478 25.5591C77.4815 25.5591 75.2217 27.6595 75.2217 30.5573C75.2217 33.4316 77.4815 35.554 80.2478 35.554C83.02 35.554 85.2799 33.4316 85.2799 30.5573C85.2799 27.6595 83.02 25.5591 80.2478 25.5591ZM80.2478 33.5859C78.73 33.5859 77.4241 32.336 77.4241 30.5573C77.4241 28.7551 78.73 27.5273 80.2478 27.5273C81.7657 27.5273 83.0774 28.7551 83.0774 30.5573C83.0774 32.336 81.7657 33.5859 80.2478 33.5859ZM69.2812 25.5591C66.509 25.5591 64.2551 27.6595 64.2551 30.5573C64.2551 33.4316 66.509 35.554 69.2812 35.554C72.052 35.554 74.3074 33.4316 74.3074 30.5573C74.3074 27.6595 72.052 25.5591 69.2812 25.5591ZM69.2812 33.5859C67.7619 33.5859 66.4516 32.336 66.4516 30.5573C66.4516 28.7551 67.7619 27.5273 69.2812 27.5273C70.7991 27.5273 72.105 28.7551 72.105 30.5573C72.105 32.336 70.7991 33.5859 69.2812 33.5859ZM56.2315 27.0911V29.2149H61.315C61.1663 30.4016 60.7688 31.2741 60.1593 31.8821C59.4173 32.6165 58.2617 33.4316 56.2315 33.4316C53.103 33.4316 50.6532 30.9127 50.6532 27.7916C50.6532 24.6706 53.103 22.1516 56.2315 22.1516C57.923 22.1516 59.1538 22.8111 60.0622 23.6659L61.5624 22.1693C60.2919 20.959 58.6017 20.0293 56.2315 20.0293C51.9414 20.0293 48.3359 23.5117 48.3359 27.7916C48.3359 32.0716 51.9414 35.554 56.2315 35.554C58.5502 35.554 60.2918 34.7961 61.661 33.3744C63.064 31.9746 63.5013 30.0065 63.5013 28.4173C63.5013 27.9238 63.4601 27.47 63.3865 27.0911H56.2315ZM109.594 28.7375C109.18 27.6198 107.904 25.5591 105.304 25.5591C102.727 25.5591 100.582 27.5846 100.582 30.5573C100.582 33.3567 102.705 35.554 105.551 35.554C107.852 35.554 109.18 34.1543 109.726 33.3391L108.018 32.2038C107.449 33.0351 106.673 33.5859 105.551 33.5859C104.436 33.5859 103.637 33.0762 103.125 32.0716L109.825 29.3059L109.594 28.7375ZM102.763 30.4016C102.705 28.4746 104.263 27.4876 105.379 27.4876C106.253 27.4876 106.995 27.9238 107.242 28.5481L102.763 30.4016ZM97.3168 35.25H99.5192V20.5625H97.3168V35.25ZM93.7098 26.6725H93.6362C93.1415 26.0879 92.1978 25.5591 91.0024 25.5591C88.4937 25.5591 86.2 27.7564 86.2 30.5735C86.2 33.3744 88.4937 35.554 91.0024 35.554C92.1978 35.554 93.1415 35.0208 93.6362 34.4186H93.7098V35.1354C93.7098 37.0462 92.6866 38.0729 91.0363 38.0729C89.6906 38.0729 88.8559 37.1035 88.5114 36.2884L86.596 37.0859C87.1481 38.4107 88.61 40.041 91.0363 40.041C93.6185 40.041 95.7974 38.5253 95.7974 34.8372V25.8632H93.7098V26.6725ZM91.1908 33.5859C89.673 33.5859 88.4024 32.3183 88.4024 30.5735C88.4024 28.8124 89.673 27.5273 91.1908 27.5273C92.6866 27.5273 93.8659 28.8124 93.8659 30.5735C93.8659 32.3183 92.6866 33.5859 91.1908 33.5859ZM119.905 20.5625H114.637V35.25H116.834V29.6849H119.905C122.345 29.6849 124.737 27.9238 124.737 25.1229C124.737 22.3235 122.339 20.5625 119.905 20.5625ZM119.962 27.6418H116.834V22.6055H119.962C121.603 22.6055 122.539 23.9641 122.539 25.1229C122.539 26.2597 121.603 27.6418 119.962 27.6418ZM133.541 25.5312C131.954 25.5312 130.303 26.2304 129.625 27.7799L131.574 28.5951C131.993 27.7799 132.765 27.5155 133.581 27.5155C134.72 27.5155 135.876 28.1985 135.893 29.4043V29.5586C135.496 29.3294 134.645 28.9901 133.598 28.9901C131.499 28.9901 129.36 30.1431 129.36 32.2948C129.36 34.263 131.079 35.5305 133.012 35.5305C134.49 35.5305 135.306 34.8651 135.818 34.0911H135.893V35.2265H138.015V29.5923C138.015 26.9882 136.066 25.5312 133.541 25.5312ZM133.276 33.58C132.557 33.58 131.556 33.2246 131.556 32.336C131.556 31.1991 132.805 30.7629 133.885 30.7629C134.853 30.7629 135.306 30.9759 135.893 31.2564C135.721 32.6165 134.548 33.58 133.276 33.58ZM145.744 25.8529L143.219 32.2199H143.144L140.534 25.8529H138.165L142.087 34.7506L139.849 39.7017H142.144L148.188 25.8529H145.744ZM125.944 35.25H128.147V20.5625H125.944V35.25Z" fill="white"/>
<defs>
<linearGradient id="paint0_linear_0_9396" x1="25.6754" y1="36.766" x2="5.95615" y2="17.0001" gradientUnits="userSpaceOnUse">
<stop stop-color="#00A0FF"/>
<stop offset="0.0066" stop-color="#00A1FF"/>
<stop offset="0.2601" stop-color="#00BEFF"/>
<stop offset="0.5122" stop-color="#00D2FF"/>
<stop offset="0.7604" stop-color="#00DFFF"/>
<stop offset="1" stop-color="#00E3FF"/>
</linearGradient>
<linearGradient id="paint1_linear_0_9396" x1="39.8495" y1="23.4982" x2="11.3509" y2="23.4982" gradientUnits="userSpaceOnUse">
<stop stop-color="#FFE000"/>
<stop offset="0.4087" stop-color="#FFBD00"/>
<stop offset="0.7754" stop-color="#FFA500"/>
<stop offset="1" stop-color="#FF9C00"/>
</linearGradient>
<linearGradient id="paint2_linear_0_9396" x1="29.2411" y1="20.8018" x2="2.50018" y2="-6.0023" gradientUnits="userSpaceOnUse">
<stop stop-color="#FF3A44"/>
<stop offset="1" stop-color="#C31162"/>
</linearGradient>
<linearGradient id="paint3_linear_0_9396" x1="8.59502" y1="46.793" x2="20.536" y2="34.8238" gradientUnits="userSpaceOnUse">
<stop stop-color="#32A071"/>
<stop offset="0.0685" stop-color="#2DA771"/>
<stop offset="0.4762" stop-color="#15CF74"/>
<stop offset="0.8009" stop-color="#06E775"/>
<stop offset="1" stop-color="#00F076"/>
</linearGradient>
</defs>
</svg>
