<svg width="55" height="55" viewBox="0 0 55 55" fill="none" xmlns="http://www.w3.org/2000/svg">
<circle cx="27.5" cy="27.5" r="26" fill="#4A7081" stroke="#4A7081" stroke-width="3"/>
<path d="M28.5 31.6C28.767 31.6 29.028 31.5238 29.25 31.3809C29.472 31.2381 29.6451 31.035 29.7472 30.7975C29.8494 30.5599 29.8762 30.2986 29.8241 30.0464C29.772 29.7942 29.6434 29.5626 29.4546 29.3808C29.2658 29.199 29.0252 29.0751 28.7634 29.025C28.5015 28.9748 28.2301 29.0006 27.9834 29.099C27.7367 29.1973 27.5259 29.364 27.3775 29.5778C27.2292 29.7915 27.15 30.0429 27.15 30.3C27.15 30.6448 27.2922 30.9754 27.5454 31.2192C27.7986 31.463 28.142 31.6 28.5 31.6ZM35.25 31.6C35.517 31.6 35.778 31.5238 36 31.3809C36.222 31.2381 36.3951 31.035 36.4972 30.7975C36.5994 30.5599 36.6262 30.2986 36.5741 30.0464C36.522 29.7942 36.3934 29.5626 36.2046 29.3808C36.0158 29.199 35.7752 29.0751 35.5134 29.025C35.2515 28.9748 34.9801 29.0006 34.7334 29.099C34.4867 29.1973 34.2759 29.364 34.1275 29.5778C33.9792 29.7915 33.9 30.0429 33.9 30.3C33.9 30.6448 34.0422 30.9754 34.2954 31.2192C34.5486 31.463 34.892 31.6 35.25 31.6ZM28.5 36.8C28.767 36.8 29.028 36.7238 29.25 36.5809C29.472 36.4381 29.6451 36.235 29.7472 35.9975C29.8494 35.7599 29.8762 35.4986 29.8241 35.2464C29.772 34.9942 29.6434 34.7626 29.4546 34.5808C29.2658 34.399 29.0252 34.2751 28.7634 34.225C28.5015 34.1748 28.2301 34.2006 27.9834 34.299C27.7367 34.3974 27.5259 34.564 27.3775 34.7778C27.2292 34.9915 27.15 35.2429 27.15 35.5C27.15 35.8448 27.2922 36.1754 27.5454 36.4192C27.7986 36.663 28.142 36.8 28.5 36.8ZM35.25 36.8C35.517 36.8 35.778 36.7238 36 36.5809C36.222 36.4381 36.3951 36.235 36.4972 35.9975C36.5994 35.7599 36.6262 35.4986 36.5741 35.2464C36.522 34.9942 36.3934 34.7626 36.2046 34.5808C36.0158 34.399 35.7752 34.2751 35.5134 34.225C35.2515 34.1748 34.9801 34.2006 34.7334 34.299C34.4867 34.3974 34.2759 34.564 34.1275 34.7778C33.9792 34.9915 33.9 35.2429 33.9 35.5C33.9 35.8448 34.0422 36.1754 34.2954 36.4192C34.5486 36.663 34.892 36.8 35.25 36.8ZM21.75 31.6C22.017 31.6 22.278 31.5238 22.5 31.3809C22.722 31.2381 22.8951 31.035 22.9972 30.7975C23.0994 30.5599 23.1262 30.2986 23.0741 30.0464C23.022 29.7942 22.8934 29.5626 22.7046 29.3808C22.5158 29.199 22.2752 29.0751 22.0134 29.025C21.7515 28.9748 21.4801 29.0006 21.2334 29.099C20.9867 29.1973 20.7759 29.364 20.6275 29.5778C20.4792 29.7915 20.4 30.0429 20.4 30.3C20.4 30.6448 20.5422 30.9754 20.7954 31.2192C21.0486 31.463 21.392 31.6 21.75 31.6ZM37.95 18.6H36.6V17.3C36.6 16.9552 36.4578 16.6246 36.2046 16.3808C35.9514 16.137 35.608 16 35.25 16C34.892 16 34.5486 16.137 34.2954 16.3808C34.0422 16.6246 33.9 16.9552 33.9 17.3V18.6H23.1V17.3C23.1 16.9552 22.9578 16.6246 22.7046 16.3808C22.4514 16.137 22.108 16 21.75 16C21.392 16 21.0486 16.137 20.7954 16.3808C20.5422 16.6246 20.4 16.9552 20.4 17.3V18.6H19.05C17.9759 18.6 16.9457 19.0109 16.1862 19.7423C15.4267 20.4737 15 21.4657 15 22.5V38.1C15 39.1343 15.4267 40.1263 16.1862 40.8577C16.9457 41.5891 17.9759 42 19.05 42H37.95C39.0241 42 40.0543 41.5891 40.8138 40.8577C41.5733 40.1263 42 39.1343 42 38.1V22.5C42 21.4657 41.5733 20.4737 40.8138 19.7423C40.0543 19.0109 39.0241 18.6 37.95 18.6ZM39.3 38.1C39.3 38.4448 39.1578 38.7754 38.9046 39.0192C38.6514 39.263 38.308 39.4 37.95 39.4H19.05C18.692 39.4 18.3486 39.263 18.0954 39.0192C17.8422 38.7754 17.7 38.4448 17.7 38.1V26.4H39.3V38.1ZM39.3 23.8H17.7V22.5C17.7 22.1552 17.8422 21.8246 18.0954 21.5808C18.3486 21.337 18.692 21.2 19.05 21.2H37.95C38.308 21.2 38.6514 21.337 38.9046 21.5808C39.1578 21.8246 39.3 22.1552 39.3 22.5V23.8ZM21.75 36.8C22.017 36.8 22.278 36.7238 22.5 36.5809C22.722 36.4381 22.8951 36.235 22.9972 35.9975C23.0994 35.7599 23.1262 35.4986 23.0741 35.2464C23.022 34.9942 22.8934 34.7626 22.7046 34.5808C22.5158 34.399 22.2752 34.2751 22.0134 34.225C21.7515 34.1748 21.4801 34.2006 21.2334 34.299C20.9867 34.3974 20.7759 34.564 20.6275 34.7778C20.4792 34.9915 20.4 35.2429 20.4 35.5C20.4 35.8448 20.5422 36.1754 20.7954 36.4192C21.0486 36.663 21.392 36.8 21.75 36.8Z" fill="white"/>
</svg>
