<svg width="55" height="55" viewBox="0 0 55 55" fill="none" xmlns="http://www.w3.org/2000/svg">
<circle cx="27.5" cy="27.5" r="26" fill="#4A7081" stroke="#4A7081" stroke-width="3"/>
<path d="M23.0533 28.2415C22.9284 28.367 22.8292 28.5163 22.7615 28.6808C22.6938 28.8453 22.6589 29.0218 22.6589 29.2C22.6589 29.3782 22.6938 29.5547 22.7615 29.7192C22.8292 29.8837 22.9284 30.033 23.0533 30.1585L27.0533 34.2085C27.1773 34.335 27.3248 34.4355 27.4872 34.504C27.6497 34.5725 27.824 34.6078 28 34.6078C28.176 34.6078 28.3503 34.5725 28.5128 34.504C28.6752 34.4355 28.8227 34.335 28.9467 34.2085L32.9467 30.1585C33.1977 29.9043 33.3388 29.5595 33.3388 29.2C33.3388 28.8405 33.1977 28.4957 32.9467 28.2415C32.6956 27.9873 32.3551 27.8445 32 27.8445C31.6449 27.8445 31.3044 27.9873 31.0533 28.2415L29.3333 29.9965V14.35C29.3333 13.992 29.1929 13.6486 28.9428 13.3954C28.6928 13.1422 28.3536 13 28 13C27.6464 13 27.3072 13.1422 27.0572 13.3954C26.8071 13.6486 26.6667 13.992 26.6667 14.35V29.9965L24.9467 28.2415C24.8227 28.115 24.6752 28.0145 24.5128 27.946C24.3503 27.8775 24.176 27.8422 24 27.8422C23.824 27.8422 23.6497 27.8775 23.4872 27.946C23.3248 28.0145 23.1773 28.115 23.0533 28.2415ZM36 22.45H33.3333C32.9797 22.45 32.6406 22.5922 32.3905 22.8454C32.1405 23.0986 32 23.442 32 23.8C32 24.158 32.1405 24.5014 32.3905 24.7546C32.6406 25.0078 32.9797 25.15 33.3333 25.15H36C36.3536 25.15 36.6928 25.2922 36.9428 25.5454C37.1929 25.7986 37.3333 26.142 37.3333 26.5V35.95C37.3333 36.308 37.1929 36.6514 36.9428 36.9046C36.6928 37.1578 36.3536 37.3 36 37.3H20C19.6464 37.3 19.3072 37.1578 19.0572 36.9046C18.8071 36.6514 18.6667 36.308 18.6667 35.95V26.5C18.6667 26.142 18.8071 25.7986 19.0572 25.5454C19.3072 25.2922 19.6464 25.15 20 25.15H22.6667C23.0203 25.15 23.3594 25.0078 23.6095 24.7546C23.8595 24.5014 24 24.158 24 23.8C24 23.442 23.8595 23.0986 23.6095 22.8454C23.3594 22.5922 23.0203 22.45 22.6667 22.45H20C18.9391 22.45 17.9217 22.8767 17.1716 23.6362C16.4214 24.3957 16 25.4259 16 26.5V35.95C16 37.0241 16.4214 38.0543 17.1716 38.8138C17.9217 39.5733 18.9391 40 20 40H36C37.0609 40 38.0783 39.5733 38.8284 38.8138C39.5786 38.0543 40 37.0241 40 35.95V26.5C40 25.4259 39.5786 24.3957 38.8284 23.6362C38.0783 22.8767 37.0609 22.45 36 22.45Z" fill="white"/>
</svg>
