<svg width="105" height="46" viewBox="0 0 105 46" fill="none" xmlns="http://www.w3.org/2000/svg">
<path d="M0.390625 10.4881H4.05853C7.26434 10.4881 9.12717 8.49537 9.12717 5.24406C9.12717 2.18752 7.26434 0 4.05853 0H0.390625V1.03383H1.3437V9.45428H0.390625V10.4881ZM2.51339 9.40933V1.09376H4.05853C6.48455 1.09376 7.92861 2.71193 7.92861 5.24406C7.92861 7.88107 6.45567 9.40933 4.05853 9.40933H2.51339Z" fill="black"/>
<path d="M10.8651 10.4881H16.7858V9.39435H12.0348V5.69355H15.9915V4.59979H12.0348V1.10874H16.6269V0H10.8651V10.4881Z" fill="black"/>
<path d="M18.368 10.4881H22.5413V9.4393H21.0395V1.04881H22.5413V0H18.368V1.04881H19.8698V9.4393H18.368V10.4881Z" fill="black"/>
<path d="M24.8482 10.4881H26.0179V1.10874H26.1045L30.61 10.4881H32.5739V0H31.4187V9.37937H31.332L26.7688 0H24.8482V10.4881Z" fill="black"/>
<path d="M0.679436 28.1467H1.84912V18.7673H1.93577L6.44123 28.1467H8.40514V17.6586H7.2499V27.0379H7.16325L2.60003 17.6586H0.679436V28.1467Z" fill="black"/>
<path d="M13.1034 16.1303C13.5511 16.1303 13.8543 15.8007 13.8543 15.3512C13.8543 14.9167 13.5511 14.5721 13.1034 14.5721C12.6846 14.5721 12.3525 14.9167 12.3525 15.3512C12.3525 15.8007 12.6846 16.1303 13.1034 16.1303ZM15.5294 16.1303C15.9482 16.1303 16.2803 15.8007 16.2803 15.3512C16.2803 14.9167 15.9482 14.5721 15.5294 14.5721C15.0818 14.5721 14.7785 14.9017 14.7785 15.3512C14.7785 15.8007 15.0818 16.1303 15.5294 16.1303ZM17.6377 28.1467H18.8652L15.1395 17.6586H13.4789L9.70987 28.1467H10.9373L11.8182 25.6595H16.7569L17.6377 28.1467ZM12.2081 24.5507L14.2442 18.7673H14.3309L16.367 24.5507H12.2081Z" fill="black"/>
<path d="M24.2703 28.3414C26.523 28.3414 28.3281 26.963 28.9634 24.9403H27.6638C27.1584 26.3187 25.8443 27.2027 24.2847 27.2027C22.0464 27.2027 20.3713 25.3898 20.3713 22.9026C20.3713 20.4454 22.0464 18.6025 24.2847 18.6025C25.8443 18.6025 27.1295 19.5015 27.6638 20.8649H28.9634C28.2992 18.8872 26.5374 17.4638 24.2847 17.4638C21.3533 17.4638 19.1583 19.8161 19.1583 22.9026C19.1583 26.0191 21.3388 28.3414 24.2703 28.3414Z" fill="black"/>
<path d="M30.6301 28.1467H31.7998V23.3671H37.1717V28.1467H38.3414V17.6586H37.1717V22.2583H31.7998V17.6586H30.6301V28.1467Z" fill="black"/>
<path d="M43.6176 28.3414C45.827 28.3414 47.1266 27.0229 47.1266 25.3748C47.1266 21.1346 41.5237 23.1274 41.5237 20.2656C41.5237 19.3966 42.1446 18.5725 43.5743 18.5725C44.9461 18.5725 45.7115 19.3067 45.7115 20.5053H46.91C46.91 18.3328 45.1194 17.4638 43.5887 17.4638C41.5526 17.4638 40.354 18.7673 40.354 20.2656C40.354 24.4608 45.9425 22.1684 45.9425 25.4497C45.9425 26.5435 44.9894 27.2177 43.6609 27.2177C42.1302 27.2177 41.1771 26.2438 41.1771 25.0302H40.0074C40.0074 26.978 41.6103 28.3414 43.6176 28.3414Z" fill="black"/>
<path d="M50.793 28.1467H51.9627V18.7673H54.9085V17.6586H47.8471V18.7673H50.793V28.1467Z" fill="black"/>
<path d="M56.3501 28.1467H62.2707V27.0529H57.5198V23.3521H61.4765V22.2583H57.5198V18.7673H62.1119V17.6586H56.3501V28.1467Z" fill="black"/>
<path d="M63.9974 28.1467H65.1671V23.9065H66.8711L69.3982 28.1467H70.8134L68.0985 23.8016C69.6726 23.5019 70.4957 22.2733 70.4957 20.7151C70.4957 18.8872 69.2682 17.6586 67.2032 17.6586H63.9974V28.1467ZM65.1671 22.8277V18.7373H67.131C68.5606 18.7373 69.2827 19.6213 69.2827 20.7301C69.2827 22.1085 68.3873 22.8277 67.2032 22.8277H65.1671Z" fill="black"/>
<path d="M77.8543 28.3414C80.1503 28.3414 80.9301 26.6484 80.9301 24.9103V17.6586H76.7279V18.7673H79.7604V24.9403C79.7604 26.079 79.3561 27.2177 77.8976 27.2177C76.7135 27.2177 76.0348 26.5435 76.0348 25.3898H74.8651C74.8651 27.4125 76.2802 28.3414 77.8543 28.3414Z" fill="black"/>
<path d="M87.6634 28.3414C90.6092 28.3414 92.8331 25.9891 92.8331 22.9026C92.8331 19.8461 90.6237 17.4638 87.6778 17.4638C84.7464 17.4638 82.5225 19.8161 82.5225 22.9026C82.5225 26.0191 84.7319 28.3414 87.6634 28.3414ZM87.6778 27.2027C85.4395 27.2027 83.7355 25.3898 83.7355 22.9026C83.7355 20.4454 85.4395 18.6025 87.6778 18.6025C89.9161 18.6025 91.6201 20.4454 91.6201 22.9026C91.6201 25.3898 89.9161 27.2027 87.6778 27.2027Z" fill="black"/>
<path d="M94.0016 28.1467H98.5071C100.211 28.1467 101.626 27.0529 101.626 25.165C101.626 23.6817 100.673 22.9326 99.9945 22.6929V22.603C100.803 22.1535 101.28 21.3743 101.28 20.3405C101.28 18.8122 100.139 17.6586 98.2183 17.6586H94.0016V18.6924H94.9547V27.1128H94.0016V28.1467ZM96.1244 22.1984V18.7373H98.2183C99.3013 18.7373 100.081 19.3966 100.081 20.4304C100.081 21.4942 99.3158 22.1984 98.175 22.1984H96.1244ZM96.1244 27.0829V23.2173H98.175C99.3447 23.2173 100.413 23.7566 100.413 25.1351C100.413 26.4836 99.5035 27.0829 98.3049 27.0829H96.1244Z" fill="black"/>
<path d="M0.535031 45.8052H4.70836V44.7564H3.20654V36.3659H4.70836V35.3171H0.535031V36.3659H2.03685V44.7564H0.535031V45.8052Z" fill="black"/>
<path d="M7.01524 45.8052H8.18493V36.4259H8.27157L12.777 45.8052H14.7409V35.3171H13.5857V44.6965H13.4991L8.93583 35.3171H7.01524V45.8052Z" fill="black"/>
<path d="M20.5262 45.8052H24.1941C27.3999 45.8052 29.2627 43.8125 29.2627 40.5612C29.2627 37.5046 27.3999 35.3171 24.1941 35.3171H20.5262V36.3509H21.4793V44.7714H20.5262V45.8052ZM22.649 44.7264V36.4109H24.1941C26.6201 36.4109 28.0642 38.029 28.0642 40.5612C28.0642 43.1982 26.5912 44.7264 24.1941 44.7264H22.649Z" fill="black"/>
<path d="M31.0007 45.8052H36.9213V44.7115H32.1704V41.0107H36.1271V39.9169H32.1704V36.4259H36.7625V35.3171H31.0007V45.8052Z" fill="black"/>
<path d="M38.648 45.8052H39.8177V41.565H41.5217L44.0488 45.8052H45.4639L42.7491 41.4601C44.3231 41.1605 45.1463 39.9319 45.1463 38.3736C45.1463 36.5457 43.9188 35.3171 41.8538 35.3171H38.648V45.8052ZM39.8177 40.4862V36.3959H41.7816C43.2112 36.3959 43.9332 37.2799 43.9332 38.3886C43.9332 39.7671 43.0379 40.4862 41.8538 40.4862H39.8177Z" fill="black"/>
<path d="M55.0897 46C57.3858 46 59.6385 44.6665 60.1006 40.8908H55.624V41.9546H58.7143C58.2089 44.0522 56.6637 44.8613 55.1042 44.8613C52.8659 44.8613 51.1619 43.0483 51.1619 40.5612C51.1619 38.104 52.837 36.261 55.0753 36.261C56.6349 36.261 57.9201 37.16 58.4544 38.5235H59.754C59.0898 36.5457 57.328 35.1223 55.0753 35.1223C52.1438 35.1223 49.9489 37.4747 49.9489 40.5612C49.9489 43.6776 52.1583 46 55.0897 46Z" fill="black"/>
<path d="M68.3202 45.8052H69.5477L65.822 35.3171H64.1613L60.3923 45.8052H61.6198L62.5007 43.318H67.4393L68.3202 45.8052ZM62.8906 42.2093L64.9267 36.4259H65.0133L67.0494 42.2093H62.8906Z" fill="black"/>
<path d="M73.6607 46C75.8701 46 77.1698 44.6815 77.1698 43.0334C77.1698 38.7932 71.5669 40.7859 71.5669 37.9242C71.5669 37.0551 72.1878 36.2311 73.6174 36.2311C74.9893 36.2311 75.7546 36.9652 75.7546 38.1639H76.9532C76.9532 35.9913 75.1626 35.1223 73.6319 35.1223C71.5957 35.1223 70.3972 36.4259 70.3972 37.9242C70.3972 42.1194 75.9857 39.827 75.9857 43.1083C75.9857 44.202 75.0326 44.8763 73.7041 44.8763C72.1734 44.8763 71.2203 43.9024 71.2203 42.6888H70.0506C70.0506 44.6365 71.6535 46 73.6607 46Z" fill="black"/>
<path d="M80.8361 45.8052H82.0058V36.4259H84.9517V35.3171H77.8903V36.4259H80.8361V45.8052Z" fill="black"/>
<path d="M86.3933 45.8052H87.563V41.565H89.2669L91.794 45.8052H93.2092L90.4944 41.4601C92.0684 41.1605 92.8915 39.9319 92.8915 38.3736C92.8915 36.5457 91.6641 35.3171 89.5991 35.3171H86.3933V45.8052ZM87.563 40.4862V36.3959H89.5269C90.9565 36.3959 91.6785 37.2799 91.6785 38.3886C91.6785 39.7671 90.7832 40.4862 89.5991 40.4862H87.563Z" fill="black"/>
<path d="M99.2209 46C102.167 46 104.391 43.6477 104.391 40.5612C104.391 37.5046 102.181 35.1223 99.2353 35.1223C96.3039 35.1223 94.08 37.4747 94.08 40.5612C94.08 43.6776 96.2895 46 99.2209 46ZM99.2353 44.8613C96.997 44.8613 95.2931 43.0483 95.2931 40.5612C95.2931 38.104 96.997 36.261 99.2353 36.261C101.474 36.261 103.178 38.104 103.178 40.5612C103.178 43.0483 101.474 44.8613 99.2353 44.8613Z" fill="black"/>
</svg>
