<svg width="446" height="717" viewBox="0 0 446 717" fill="none" xmlns="http://www.w3.org/2000/svg">
<mask id="mask0_0_8918" style="mask-type:alpha" maskUnits="userSpaceOnUse" x="0" y="0" width="446" height="717">
<rect width="446" height="717" fill="#C4C4C4"/>
</mask>
<g mask="url(#mask0_0_8918)">
<g filter="url(#filter0_d_0_8918)">
<path d="M146.947 229.495C146.947 242.854 152.254 255.665 161.7 265.111C171.146 274.558 183.957 279.864 197.316 279.864H214.64C226.391 279.86 237.772 275.748 246.811 268.238C255.849 260.729 261.978 250.295 264.136 238.743V218.739C258.169 228.997 249.614 237.508 239.326 243.423C229.038 249.337 217.378 252.447 205.511 252.442C204.315 252.442 203.119 252.442 202.018 252.347C199.726 252.231 197.442 251.999 195.174 251.653C187.468 250.472 180.024 247.966 173.172 244.247C172.215 243.732 171.27 243.182 170.337 242.62C160.665 236.736 152.61 228.537 146.899 218.763V227.856L146.947 229.495Z" fill="#DEA690"/>
<path d="M170.359 242.62C171.293 243.182 172.238 243.732 173.195 244.247C180.045 247.975 187.489 250.488 195.197 251.677C197.465 252.023 199.749 252.255 202.041 252.371C203.237 252.43 204.362 252.466 205.534 252.466C217.401 252.471 229.061 249.361 239.349 243.447C249.637 237.532 258.192 229.021 264.159 218.763V198.663C264.119 198.734 264.075 198.802 264.027 198.867C263.548 199.692 263.046 200.518 262.52 201.26L262.196 201.762C261.706 202.504 261.191 203.246 260.677 203.963L260.234 204.574C259.732 205.268 259.205 205.95 258.667 206.62C258.5 206.823 258.344 207.038 258.188 207.242C257.495 208.091 256.789 208.929 256.047 209.742L255.664 210.173C249.309 217.141 241.571 222.708 232.943 226.517C224.316 230.326 214.989 232.293 205.558 232.295C196.24 232.293 187.022 230.372 178.48 226.65C169.937 222.928 162.253 217.486 155.907 210.663C155.109 209.778 154.312 208.869 153.514 207.936C151.073 205.013 148.88 201.891 146.958 198.604V218.703C152.651 228.495 160.694 236.715 170.359 242.62Z" fill="#D58F7C"/>
<path d="M280.801 119.448C281.695 119.448 282.554 119.804 283.186 120.436C283.819 121.069 284.175 121.927 284.175 122.822C284.175 123.717 283.819 124.575 283.186 125.208C282.554 125.841 281.695 126.196 280.801 126.196H273.431V135.121H279.843C283.14 135.121 286.302 133.812 288.633 131.48C290.965 129.149 292.274 125.987 292.274 122.691C292.274 119.394 290.965 116.232 288.633 113.901C286.302 111.569 283.14 110.26 279.843 110.26H273.431V119.448H280.801Z" fill="#F37B67"/>
<path d="M137.698 133.889V126.615V126.196H130.328C129.433 126.196 128.575 125.841 127.942 125.208C127.309 124.575 126.954 123.717 126.954 122.822C126.954 121.927 127.309 121.069 127.942 120.436C128.575 119.804 129.433 119.448 130.328 119.448H137.698V110.26H131.249C127.952 110.26 124.79 111.569 122.459 113.901C120.128 116.232 118.818 119.394 118.818 122.691C118.818 125.987 120.128 129.149 122.459 131.48C124.79 133.812 127.952 135.121 131.249 135.121H137.674V133.925L137.698 133.889Z" fill="#F37B67"/>
<path d="M284.115 122.822C284.112 121.939 283.764 121.091 283.144 120.461C282.525 119.83 281.684 119.467 280.801 119.448H273.431V126.196H280.801C281.684 126.177 282.525 125.814 283.144 125.184C283.764 124.553 284.112 123.706 284.115 122.822Z" fill="#E56658"/>
<path d="M130.328 119.448C129.433 119.448 128.575 119.804 127.942 120.436C127.31 121.069 126.954 121.927 126.954 122.822C126.954 123.717 127.31 124.575 127.942 125.208C128.575 125.841 129.433 126.196 130.328 126.196H137.698V119.448H130.328Z" fill="#E56658"/>
<path d="M236.784 69.4855L237.011 69.2109L236.784 69.4855Z" fill="#87221A"/>
<path d="M232.946 73.6855L232.419 74.2L232.946 73.6855Z" fill="#87221A"/>
<path d="M162.703 62.6424H201.299C211.071 62.6434 220.647 59.9053 228.941 54.7389C237.235 49.5726 243.915 42.1848 248.223 33.4139V10H187.564C174.339 10 161.655 15.2538 152.303 24.6056C142.952 33.9574 137.698 46.6412 137.698 59.8667V68.0023V87.5997C137.71 80.9762 140.35 74.6283 145.038 69.9493C149.726 65.2703 156.079 62.6424 162.703 62.6424ZM200.402 15.3001H237.108C238.361 15.3001 239.564 15.798 240.45 16.6843C241.336 17.5706 241.834 18.7726 241.834 20.026C241.834 21.2794 241.336 22.4814 240.45 23.3677C239.564 24.2539 238.361 24.7518 237.108 24.7518H200.402C199.149 24.7518 197.947 24.2539 197.06 23.3677C196.174 22.4814 195.676 21.2794 195.676 20.026C195.676 18.7726 196.174 17.5706 197.06 16.6843C197.947 15.798 199.149 15.3001 200.402 15.3001ZM168.673 33.366H208.155C209.142 33.366 210.088 33.7581 210.786 34.4559C211.484 35.1537 211.876 36.1001 211.876 37.0869C211.876 38.0737 211.484 39.0201 210.786 39.7179C210.088 40.4157 209.142 40.8078 208.155 40.8078H168.673C167.686 40.8078 166.74 40.4157 166.042 39.7179C165.344 39.0201 164.952 38.0737 164.952 37.0869C164.952 36.1001 165.344 35.1537 166.042 34.4559C166.74 33.7581 167.686 33.366 168.673 33.366ZM148.334 51.073H160.753C161.638 51.073 162.487 51.4247 163.113 52.0507C163.739 52.6767 164.091 53.5257 164.091 54.411C164.091 55.2963 163.739 56.1454 163.113 56.7714C162.487 57.3974 161.638 57.749 160.753 57.749H148.346C147.461 57.749 146.612 57.3974 145.986 56.7714C145.36 56.1454 145.008 55.2963 145.008 54.411C145.008 53.5257 145.36 52.6767 145.986 52.0507C146.612 51.4247 147.461 51.073 148.346 51.073H148.334Z" fill="#87221A"/>
<path d="M234.584 71.9747C234.74 71.8191 234.884 71.6516 235.027 71.4961C234.884 71.6516 234.74 71.8191 234.584 71.9747Z" fill="#87221A"/>
<path d="M247.229 47.5918C247.229 47.7354 247.169 47.8909 247.133 48.0345C247.169 47.8909 247.193 47.7354 247.229 47.5918Z" fill="#87221A"/>
<path d="M137.698 126.196V126.615V133.889C137.701 151.88 144.849 169.133 157.57 181.854C170.291 194.575 187.544 201.723 205.535 201.726C223.525 201.723 240.778 194.575 253.499 181.854C266.22 169.133 273.368 151.88 273.372 133.889V96.6807V51.0732H246.404C244.854 56.6971 242.323 62.0029 238.927 66.7463C240.652 67.9755 242.31 69.2975 243.892 70.7065C249.926 76.0973 254.751 82.7038 258.05 90.092C261.349 97.4802 263.048 105.483 263.034 113.574V126.196C263.034 128.563 262.094 130.834 260.42 132.507C258.747 134.181 256.476 135.122 254.109 135.122H222.356V140.673C222.355 142.852 221.928 145.01 221.1 147.026H238.388C238.401 154.082 236.131 160.953 231.916 166.611C230.637 172.127 227.609 177.081 223.284 180.734C218.959 184.388 213.568 186.545 207.917 186.884C202.265 187.223 196.656 185.726 191.925 182.616C187.194 179.506 183.595 174.949 181.666 169.626C175.858 163.537 172.623 155.441 172.633 147.026H189.921C189.114 145.006 188.707 142.848 188.725 140.673V135.122H156.936C155.763 135.123 154.601 134.893 153.517 134.446C152.433 133.998 151.447 133.341 150.617 132.512C149.787 131.683 149.129 130.698 148.679 129.615C148.23 128.531 147.999 127.369 147.999 126.196V113.574C147.998 109.069 148.528 104.579 149.578 100.198C149.758 99.4205 149.961 98.6548 150.176 97.901V97.7814C151.178 94.2669 152.516 90.8572 154.172 87.5999H137.698V126.196ZM253.116 146.081C253.16 145.452 253.44 144.863 253.901 144.434C254.362 144.004 254.969 143.765 255.599 143.765C256.229 143.765 256.836 144.004 257.296 144.434C257.757 144.863 258.038 145.452 258.081 146.081V164.027C258.105 164.368 258.058 164.709 257.944 165.031C257.83 165.353 257.651 165.648 257.418 165.897C257.186 166.147 256.904 166.346 256.591 166.482C256.278 166.618 255.94 166.688 255.599 166.688C255.257 166.688 254.92 166.618 254.607 166.482C254.294 166.346 254.012 166.147 253.779 165.897C253.546 165.648 253.367 165.353 253.253 165.031C253.139 164.709 253.093 164.368 253.116 164.027V146.081ZM236.534 168.98C236.578 168.342 236.862 167.745 237.33 167.308C237.797 166.872 238.413 166.629 239.052 166.629C239.692 166.629 240.307 166.872 240.775 167.308C241.242 167.745 241.527 168.342 241.571 168.98V180.179C241.595 180.524 241.547 180.871 241.431 181.197C241.316 181.523 241.134 181.822 240.898 182.075C240.662 182.328 240.376 182.53 240.058 182.668C239.741 182.806 239.398 182.877 239.052 182.877C238.706 182.877 238.364 182.806 238.046 182.668C237.729 182.53 237.443 182.328 237.207 182.075C236.971 181.822 236.789 181.523 236.673 181.197C236.557 180.871 236.51 180.524 236.534 180.179V168.98ZM169.427 168.98C169.427 168.314 169.691 167.675 170.163 167.204C170.634 166.732 171.273 166.468 171.939 166.468C172.606 166.468 173.245 166.732 173.716 167.204C174.187 167.675 174.452 168.314 174.452 168.98V180.179C174.452 180.845 174.187 181.484 173.716 181.955C173.245 182.426 172.606 182.691 171.939 182.691C171.273 182.691 170.634 182.426 170.163 181.955C169.691 181.484 169.427 180.845 169.427 180.179V168.98ZM156.793 143.03C156.834 142.466 157.087 141.939 157.501 141.555C157.915 141.17 158.459 140.956 159.024 140.956C159.589 140.956 160.133 141.17 160.547 141.555C160.961 141.939 161.214 142.466 161.255 143.03V166.228C161.214 166.792 160.961 167.319 160.547 167.704C160.133 168.088 159.589 168.302 159.024 168.302C158.459 168.302 157.915 168.088 157.501 167.704C157.087 167.319 156.834 166.792 156.793 166.228V143.03Z" fill="#87221A"/>
<path d="M247.78 44.2295C247.78 44.4807 247.72 44.72 247.685 44.9593C247.72 44.6961 247.756 44.4807 247.78 44.2295Z" fill="#87221A"/>
<path d="M248.116 40.9629L248.044 41.7645L248.116 40.9629Z" fill="#87221A"/>
<path d="M155.884 210.723C157.549 212.504 159.311 214.193 161.16 215.783C159.311 214.193 157.549 212.504 155.884 210.723Z" fill="#87221A"/>
<path d="M205.535 232.355C189.227 232.371 173.465 226.485 161.16 215.785C173.476 226.5 189.257 232.391 205.583 232.367C222.264 232.387 238.363 226.238 250.783 215.103C238.363 226.238 222.264 232.387 205.583 232.367L205.535 232.355Z" fill="#87221A"/>
<path d="M273.371 164.518C273.371 165.487 273.371 166.456 273.299 167.413C273.335 166.456 273.371 165.535 273.371 164.518Z" fill="#87221A"/>
<path d="M265.367 196.462C265.295 196.581 265.235 196.701 265.176 196.82C265.247 196.701 265.247 196.641 265.367 196.462Z" fill="#87221A"/>
<path d="M273.252 168.25C273.252 168.98 273.168 169.71 273.097 170.439C273.168 169.71 273.216 168.98 273.252 168.25Z" fill="#87221A"/>
<path d="M273.036 171.182C272.953 172.091 272.845 173 272.713 173.898C272.845 173 272.953 172.091 273.036 171.182Z" fill="#87221A"/>
<path d="M258.643 206.679C258.475 206.882 258.32 207.097 258.164 207.301C258.32 207.097 258.475 206.882 258.643 206.679Z" fill="#87221A"/>
<path d="M264.135 198.663L264.291 198.399L264.003 198.866C264.051 198.801 264.095 198.733 264.135 198.663Z" fill="#87221A"/>
<path d="M260.654 204.022L260.211 204.633L260.654 204.022Z" fill="#87221A"/>
<path d="M262.497 201.319L262.174 201.822L262.497 201.319Z" fill="#87221A"/>
<path d="M267.222 192.729L266.971 193.268L267.222 192.729Z" fill="#87221A"/>
<path d="M268.251 190.348L267.928 191.125L268.251 190.348Z" fill="#87221A"/>
<path d="M270.476 184.114C270.357 184.509 270.225 184.904 270.105 185.311C270.225 184.904 270.357 184.509 270.476 184.114Z" fill="#87221A"/>
<path d="M272.582 174.759C272.486 175.393 272.39 175.955 272.271 176.649C272.426 176.015 272.486 175.393 272.582 174.759Z" fill="#87221A"/>
<path d="M272.067 177.726C271.948 178.348 271.816 178.97 271.672 179.592C271.816 178.994 271.948 178.372 272.067 177.726Z" fill="#87221A"/>
<path d="M269.638 186.711L269.459 187.225L269.638 186.711Z" fill="#87221A"/>
<path d="M271.301 181.088L270.87 182.727L271.301 181.088Z" fill="#87221A"/>
<path d="M155.883 210.723C162.23 217.545 169.914 222.987 178.456 226.709C186.999 230.431 196.217 232.352 205.535 232.354C214.972 232.358 224.305 230.392 232.939 226.583C241.573 222.774 249.318 217.205 255.677 210.232L256.059 209.801C256.801 208.988 257.507 208.15 258.201 207.301C258.357 207.097 258.512 206.882 258.68 206.679C259.218 206.009 259.744 205.327 260.247 204.633L260.69 204.023C261.204 203.305 261.718 202.563 262.209 201.821L262.532 201.319C263.058 200.517 263.561 199.692 264.04 198.926L264.327 198.459C264.626 197.933 264.925 197.406 265.212 196.88C265.272 196.76 265.332 196.641 265.403 196.521C265.966 195.468 266.492 194.403 267.007 193.327L267.258 192.788C267.497 192.262 267.736 191.724 267.964 191.185L268.287 190.407C268.717 189.379 269.112 188.338 269.483 187.285L269.663 186.77L270.129 185.359C270.249 184.964 270.381 184.569 270.5 184.162L270.895 182.822L271.326 181.183C271.457 180.669 271.577 180.154 271.697 179.64C271.816 179.125 271.972 178.443 272.091 177.773C272.163 177.414 272.235 177.055 272.295 176.697C272.414 176.062 272.51 175.5 272.606 174.806C272.606 174.519 272.702 174.232 272.737 173.945C272.869 173.047 272.977 172.138 273.061 171.229C273.061 170.99 273.061 170.738 273.12 170.487C273.192 169.757 273.24 169.027 273.276 168.298C273.276 168.011 273.276 167.735 273.276 167.46C273.276 166.503 273.348 165.534 273.348 164.565V133.937C273.344 151.927 266.196 169.18 253.475 181.901C240.754 194.622 223.501 201.77 205.511 201.773C187.52 201.77 170.268 194.622 157.546 181.901C144.825 169.18 137.677 151.927 137.674 133.937V164.565C137.662 176.564 140.846 188.35 146.898 198.711C148.82 201.998 151.013 205.12 153.455 208.043C154.252 208.944 155.062 209.837 155.883 210.723Z" fill="#61150D"/>
<path d="M222.176 136.258C222.176 136.509 222.176 136.773 222.093 137.012C222.009 137.49 221.877 137.957 221.758 138.424C221.758 138.591 221.686 138.771 221.626 138.95C221.459 139.512 221.255 140.051 221.04 140.577C221.04 140.649 221.04 140.733 220.956 140.793C220.695 141.395 220.399 141.982 220.071 142.551C219.818 142.988 219.542 143.412 219.245 143.82C219.232 143.852 219.212 143.881 219.185 143.903C218.908 144.318 218.608 144.717 218.288 145.1L218.156 145.243C217.857 145.578 217.546 145.913 217.223 146.224L217.008 146.416C216.781 146.631 216.565 146.846 216.314 147.05H221.1C221.928 145.034 222.354 142.876 222.356 140.697V135.146C222.284 135.504 222.176 135.875 222.176 136.258Z" fill="#85221A"/>
<path d="M194.78 147.025C194.54 146.822 194.313 146.606 194.086 146.391L193.87 146.2C193.547 145.889 193.236 145.554 192.937 145.219L192.805 145.075C192.489 144.693 192.193 144.293 191.92 143.879L191.848 143.795C191.561 143.388 191.286 142.957 191.023 142.527C190.69 141.96 190.394 141.373 190.137 140.768C190.104 140.702 190.076 140.634 190.054 140.565C189.824 140.03 189.624 139.482 189.455 138.925C189.455 138.758 189.372 138.579 189.336 138.399C189.2 137.934 189.088 137.463 189.001 136.987C189.001 136.748 189.001 136.485 188.905 136.234C188.809 135.982 188.797 135.48 188.773 135.037V140.588C188.756 142.764 189.162 144.922 189.97 146.941H194.756L194.78 147.025Z" fill="#85221A"/>
<path d="M233.387 151.956C233.389 152.649 233.253 153.336 232.989 153.977C232.724 154.617 232.335 155.2 231.845 155.69C231.355 156.18 230.773 156.569 230.132 156.833C229.491 157.098 228.804 157.233 228.111 157.232H215.429C216.986 157.91 218.256 159.112 219.018 160.63H232.585C232.585 162.643 232.356 164.65 231.903 166.612C236.118 160.953 238.389 154.082 238.376 147.026H233.375V151.956H233.387Z" fill="#85221A"/>
<path d="M192.027 160.63C192.792 159.115 194.061 157.913 195.616 157.232H182.934C181.535 157.232 180.193 156.676 179.203 155.686C178.214 154.697 177.658 153.355 177.658 151.956V147.026H172.657C172.646 155.442 175.882 163.537 181.69 169.627C180.634 166.745 180.095 163.699 180.098 160.63H192.027Z" fill="#85221A"/>
<path d="M192.027 160.629H219.03C218.268 159.112 216.998 157.91 215.441 157.231H195.629C194.069 157.911 192.796 159.112 192.027 160.629Z" fill="#85221A"/>
<path d="M205.534 155.341C203.249 155.343 200.987 154.877 198.888 153.971C196.79 153.066 194.898 151.741 193.331 150.077H177.67V151.956C177.67 153.355 178.226 154.697 179.215 155.686C180.205 156.676 181.547 157.232 182.946 157.232H228.159C228.852 157.233 229.539 157.098 230.18 156.833C230.821 156.569 231.403 156.18 231.893 155.69C232.383 155.2 232.772 154.617 233.037 153.977C233.301 153.336 233.437 152.649 233.435 151.956V150.077H217.738C216.171 151.741 214.279 153.066 212.181 153.971C210.082 154.877 207.82 155.343 205.534 155.341Z" fill="#85221A"/>
<path d="M193.331 150.077C192.448 149.154 191.677 148.13 191.034 147.026H177.67V150.077H193.331Z" fill="#85221A"/>
<path d="M217.739 150.077H233.388V147.026H220.024C219.381 148.127 218.614 149.151 217.739 150.077Z" fill="#85221A"/>
<path d="M215.704 147.468C215.393 147.708 215.081 147.935 214.758 148.15L214.328 148.413C214.029 148.605 213.718 148.784 213.406 148.952L212.844 149.227C212.557 149.359 212.27 149.514 211.971 149.634C211.672 149.753 211.504 149.801 211.277 149.885L210.451 150.184C210.176 150.268 209.889 150.328 209.614 150.4C209.339 150.471 209.123 150.531 208.872 150.579C208.621 150.627 208.178 150.687 207.831 150.735L207.221 150.83C206.661 150.889 206.097 150.917 205.534 150.914C204.967 150.916 204.4 150.888 203.835 150.83L203.237 150.735C202.89 150.735 202.531 150.651 202.196 150.579C201.861 150.507 201.694 150.459 201.454 150.4C201.215 150.34 200.88 150.268 200.617 150.184L199.791 149.885C199.552 149.801 199.325 149.73 199.097 149.634C198.87 149.538 198.511 149.359 198.212 149.227L197.662 148.952C197.339 148.784 197.039 148.605 196.728 148.413C196.597 148.318 196.441 148.246 196.31 148.15C195.975 147.935 195.664 147.708 195.353 147.468L195.041 147.229L194.778 147.026H191.069C191.713 148.129 192.484 149.153 193.366 150.077C194.934 151.74 196.825 153.065 198.924 153.971C201.022 154.876 203.284 155.342 205.57 155.341C208.507 155.338 211.392 154.562 213.935 153.092C216.478 151.622 218.59 149.51 220.059 146.966H216.314L216.063 147.169L215.704 147.468Z" fill="#85221A"/>
<path d="M154.22 87.5996C152.564 90.857 151.225 94.2666 150.224 97.7811C151.229 94.2662 152.572 90.8566 154.232 87.5996H154.22Z" fill="#F69878"/>
<path d="M221.614 138.95C221.447 139.513 221.243 140.051 221.028 140.577C221.243 140.051 221.447 139.513 221.614 138.95Z" fill="#F69878"/>
<path d="M190.042 140.589C189.813 140.054 189.613 139.507 189.444 138.95C189.613 139.507 189.813 140.054 190.042 140.589Z" fill="#F69878"/>
<path d="M191.069 142.552C190.736 141.985 190.441 141.398 190.184 140.793C190.441 141.398 190.736 141.985 191.069 142.552Z" fill="#F69878"/>
<path d="M189.324 138.423C189.188 137.959 189.076 137.488 188.989 137.012C189.076 137.488 189.188 137.959 189.324 138.423Z" fill="#F69878"/>
<path d="M198.356 100.198H186.619C186.619 100.198 186.619 100.293 186.619 100.341C186.681 100.669 186.713 101.001 186.715 101.334C186.718 102.478 186.376 103.595 185.734 104.541L185.662 104.624C186.27 105.483 186.631 106.493 186.704 107.543C186.776 108.593 186.558 109.642 186.074 110.577C185.59 111.511 184.857 112.294 183.957 112.839C183.057 113.385 182.024 113.672 180.972 113.669H176.186C176.239 113.954 176.267 114.242 176.27 114.531V119.005C176.27 120.138 175.82 121.225 175.019 122.026C174.218 122.827 173.131 123.277 171.999 123.277C170.866 123.277 169.779 122.827 168.978 122.026C168.177 121.225 167.727 120.138 167.727 119.005V114.531C167.728 114.241 167.761 113.952 167.823 113.669H163.038C161.984 113.674 160.95 113.389 160.048 112.844C159.146 112.299 158.412 111.517 157.926 110.582C157.44 109.647 157.221 108.597 157.294 107.546C157.366 106.495 157.726 105.484 158.336 104.624L158.264 104.541C157.626 103.593 157.285 102.477 157.283 101.334C157.288 101.001 157.324 100.668 157.39 100.341C157.385 100.294 157.385 100.245 157.39 100.198H149.65C148.575 104.576 148.021 109.066 147.999 113.574V126.196C147.999 128.563 148.939 130.833 150.613 132.507C152.287 134.181 154.557 135.121 156.924 135.121H188.749C188.749 135.504 188.832 135.875 188.88 136.318C188.88 135.863 188.761 135.42 188.737 134.954C190.357 137.989 192.771 140.528 195.721 142.3C198.671 144.071 202.046 145.01 205.486 145.016C208.928 145.011 212.303 144.073 215.253 142.301C218.203 140.529 220.616 137.99 222.236 134.954C222.213 135.411 222.165 135.866 222.093 136.318C222.093 135.935 222.212 135.564 222.236 135.121H254.061C255.233 135.121 256.394 134.89 257.477 134.442C258.559 133.993 259.543 133.336 260.372 132.507C261.201 131.678 261.858 130.694 262.307 129.611C262.755 128.529 262.986 127.368 262.986 126.196V113.574C263 105.482 261.301 97.4798 258.002 90.0916C254.703 82.7034 249.878 76.0969 243.844 70.7061C239.913 79.4852 233.528 86.9404 225.457 92.1731C217.386 97.4058 207.974 100.193 198.356 100.198ZM249.012 98.8817C249.084 99.0372 249.144 99.1928 249.204 99.3603C249.299 99.5929 249.375 99.833 249.431 100.078C249.437 100.166 249.437 100.254 249.431 100.341C249.493 100.669 249.525 101.001 249.527 101.334C249.528 102.102 249.377 102.862 249.084 103.572C248.918 103.941 248.718 104.293 248.486 104.624C249.09 105.485 249.447 106.495 249.517 107.544C249.587 108.594 249.368 109.642 248.883 110.575C248.398 111.509 247.665 112.291 246.766 112.836C245.867 113.382 244.835 113.67 243.784 113.669H238.998C239.061 113.952 239.093 114.241 239.094 114.531V119.005C239.094 119.566 238.983 120.122 238.769 120.64C238.554 121.158 238.239 121.629 237.843 122.026C237.446 122.422 236.975 122.737 236.457 122.952C235.939 123.166 235.384 123.277 234.823 123.277C234.262 123.277 233.706 123.166 233.188 122.952C232.67 122.737 232.199 122.422 231.802 122.026C231.406 121.629 231.091 121.158 230.877 120.64C230.662 120.122 230.551 119.566 230.551 119.005V114.531C230.548 114.242 230.576 113.953 230.635 113.669H225.849C224.798 113.67 223.766 113.382 222.867 112.836C221.968 112.291 221.236 111.509 220.751 110.575C220.265 109.642 220.046 108.594 220.116 107.544C220.186 106.495 220.543 105.485 221.148 104.624C221.148 104.624 221.148 104.624 221.148 104.541C220.505 103.595 220.163 102.478 220.166 101.334C220.168 101.001 220.2 100.669 220.262 100.341C220.268 100.254 220.268 100.166 220.262 100.078C220.318 99.833 220.394 99.5929 220.49 99.3603C220.549 99.1928 220.609 99.0372 220.681 98.8817C221.139 97.9148 221.857 97.0948 222.755 96.5136C223.654 95.9324 224.696 95.6131 225.766 95.5915H243.832C244.918 95.5924 245.982 95.9022 246.899 96.4847C247.817 97.0673 248.549 97.8986 249.012 98.8817Z" fill="#F69878"/>
<path d="M222.082 137.012C221.998 137.49 221.866 137.957 221.747 138.423C221.866 138.017 221.998 137.49 222.082 137.012Z" fill="#F69878"/>
<path d="M220.979 140.793C220.718 141.396 220.422 141.983 220.094 142.552C220.422 141.983 220.718 141.396 220.979 140.793Z" fill="#F69878"/>
<path d="M243.867 70.7062C242.293 69.298 240.644 67.976 238.926 66.7461C240.644 67.976 242.293 69.298 243.867 70.7062Z" fill="#F69878"/>
<path d="M237.014 69.2107L236.786 69.4859C236.212 70.1679 235.59 70.8378 235.028 71.4959C234.884 71.6514 234.741 71.8189 234.585 71.9744C234.035 72.5607 233.472 73.1709 232.886 73.6853L232.36 74.1998C231.618 74.8937 230.864 75.5637 230.075 76.2098C221.841 83.0376 211.614 87.0092 200.93 87.5279C200.08 87.5279 199.219 87.5997 198.358 87.5997H154.234C152.573 90.8567 151.231 94.2663 150.226 97.7812V97.9008C150.01 98.6546 149.807 99.4203 149.627 100.198H157.368V100.078C157.426 99.8349 157.498 99.5952 157.584 99.3605C157.584 99.193 157.715 99.0374 157.787 98.8819C158.25 97.8988 158.982 97.0675 159.9 96.4849C160.817 95.9024 161.881 95.5926 162.968 95.5917H180.998C182.082 95.5949 183.143 95.9057 184.058 96.4881C184.973 97.0705 185.704 97.9006 186.166 98.8819C186.246 99.036 186.314 99.1959 186.369 99.3605C186.461 99.5934 186.533 99.8335 186.585 100.078C186.592 100.118 186.592 100.158 186.585 100.198H198.322C207.936 100.188 217.343 97.3992 225.409 92.1668C233.476 86.9344 239.857 79.4817 243.786 70.7062C242.238 69.3004 240.617 67.9785 238.928 66.7461C238.294 67.5956 237.66 68.4091 237.014 69.2107Z" fill="#F37B67"/>
<path d="M216.278 147.026C216.529 146.822 216.745 146.607 216.972 146.392C216.671 146.687 216.356 146.966 216.027 147.229L216.278 147.026Z" fill="#F69878"/>
<path d="M194.085 146.392C194.312 146.607 194.54 146.822 194.779 147.026L195.042 147.229C194.709 146.966 194.39 146.687 194.085 146.392Z" fill="#F69878"/>
<path d="M189.323 138.424C189.323 138.603 189.395 138.783 189.443 138.95C189.612 139.507 189.812 140.055 190.041 140.589C190.064 140.659 190.092 140.727 190.125 140.793C190.381 141.398 190.677 141.985 191.01 142.552C191.273 142.982 191.549 143.413 191.836 143.82L191.908 143.904C192.181 144.318 192.476 144.717 192.793 145.1L192.925 145.244C193.224 145.579 193.535 145.914 193.858 146.225L194.073 146.416C194.378 146.711 194.697 146.991 195.03 147.254L195.341 147.493C195.652 147.732 195.963 147.959 196.298 148.175C196.43 148.27 196.586 148.342 196.717 148.438C197.028 148.629 197.327 148.809 197.65 148.976L198.201 149.252C198.5 149.383 198.787 149.539 199.086 149.658C199.385 149.778 199.541 149.826 199.78 149.91L200.606 150.209C200.869 150.292 201.156 150.352 201.443 150.424C201.73 150.496 201.934 150.556 202.185 150.603C202.436 150.651 202.879 150.711 203.226 150.759L203.824 150.855C204.388 150.913 204.955 150.941 205.523 150.938C206.086 150.941 206.649 150.913 207.21 150.855L207.82 150.759C208.167 150.759 208.514 150.675 208.861 150.603C209.208 150.532 209.351 150.484 209.603 150.424C209.854 150.364 210.165 150.292 210.44 150.209L211.266 149.91C211.493 149.826 211.732 149.754 211.96 149.658C212.187 149.563 212.546 149.383 212.833 149.252L213.395 148.976C213.706 148.809 214.017 148.629 214.316 148.438L214.747 148.175C215.07 147.959 215.381 147.732 215.692 147.493L216.015 147.254C216.344 146.991 216.66 146.711 216.961 146.416L217.176 146.225C217.499 145.914 217.81 145.579 218.109 145.244L218.241 145.1C218.561 144.718 218.861 144.318 219.138 143.904C219.164 143.881 219.185 143.852 219.198 143.82C219.495 143.412 219.771 142.989 220.023 142.552C220.352 141.983 220.647 141.395 220.909 140.793C220.909 140.793 220.909 140.649 220.992 140.578C221.208 140.051 221.411 139.513 221.579 138.95C221.639 138.771 221.662 138.591 221.71 138.424C221.83 137.957 221.962 137.491 222.045 137.012C222.045 136.773 222.045 136.51 222.129 136.258C222.201 135.807 222.249 135.351 222.273 134.895C220.653 137.931 218.239 140.47 215.289 142.242C212.339 144.014 208.964 144.952 205.523 144.956C202.082 144.951 198.707 144.012 195.757 142.24C192.808 140.468 190.394 137.93 188.773 134.895C188.773 135.361 188.869 135.804 188.917 136.258C188.917 136.51 188.917 136.773 189.012 137.012C189.092 137.488 189.196 137.959 189.323 138.424Z" fill="#F37B67"/>
<path d="M180.996 107.077H162.966C162.048 107.085 161.141 106.872 160.323 106.456C159.504 106.039 158.798 105.432 158.264 104.685C157.655 105.544 157.294 106.555 157.222 107.606C157.15 108.657 157.369 109.707 157.855 110.642C158.34 111.577 159.075 112.359 159.976 112.904C160.878 113.449 161.912 113.734 162.966 113.729H167.752C167.946 112.762 168.469 111.892 169.233 111.267C169.996 110.642 170.952 110.3 171.939 110.3C172.926 110.3 173.882 110.642 174.645 111.267C175.409 111.892 175.932 112.762 176.126 113.729H180.912C181.965 113.732 182.997 113.445 183.897 112.899C184.797 112.354 185.53 111.571 186.014 110.637C186.499 109.702 186.717 108.653 186.644 107.603C186.571 106.553 186.211 105.543 185.602 104.685C185.078 105.419 184.388 106.019 183.587 106.435C182.786 106.851 181.898 107.071 180.996 107.077Z" fill="#F37B67"/>
<path d="M157.367 100.078V100.197C157.361 100.245 157.361 100.293 157.367 100.341C157.362 100.253 157.362 100.166 157.367 100.078Z" fill="#87221A"/>
<path d="M162.966 102.124H180.996C182.081 102.121 183.142 101.81 184.057 101.228C184.972 100.645 185.703 99.8154 186.165 98.8341C185.703 97.8528 184.972 97.0227 184.057 96.4403C183.142 95.8579 182.081 95.5471 180.996 95.5439H162.966C161.88 95.5448 160.816 95.8546 159.898 96.4371C158.981 97.0197 158.248 97.851 157.786 98.8341C158.248 99.8172 158.981 100.649 159.898 101.231C160.816 101.814 161.88 102.123 162.966 102.124ZM166.735 96.1422H177.215C177.691 96.1422 178.148 96.3312 178.484 96.6678C178.821 97.0043 179.01 97.4608 179.01 97.9368C179.01 98.4127 178.821 98.8692 178.484 99.2058C178.148 99.5423 177.691 99.7314 177.215 99.7314H166.735C166.259 99.7314 165.802 99.5423 165.466 99.2058C165.129 98.8692 164.94 98.4127 164.94 97.9368C164.94 97.4608 165.129 97.0043 165.466 96.6678C165.802 96.3312 166.259 96.1422 166.735 96.1422Z" fill="#87221A"/>
<path d="M186.62 100.197C186.627 100.158 186.627 100.118 186.62 100.078C186.62 100.162 186.62 100.257 186.68 100.341C186.739 100.424 186.632 100.245 186.62 100.197Z" fill="#87221A"/>
<path d="M166.734 99.7318H177.215C177.691 99.7318 178.147 99.5428 178.484 99.2062C178.82 98.8696 179.009 98.4132 179.009 97.9372C179.009 97.4612 178.82 97.0048 178.484 96.6682C178.147 96.3317 177.691 96.1426 177.215 96.1426H166.734C166.258 96.1426 165.802 96.3317 165.465 96.6682C165.129 97.0048 164.939 97.4612 164.939 97.9372C164.939 98.4132 165.129 98.8696 165.465 99.2062C165.802 99.5428 166.258 99.7318 166.734 99.7318Z" fill="#BB342F"/>
<path d="M157.211 101.334C157.214 102.477 157.555 103.593 158.192 104.541L158.264 104.625C158.798 105.372 159.504 105.979 160.323 106.396C161.141 106.812 162.048 107.025 162.966 107.017H180.996C181.913 107.025 182.817 106.811 183.634 106.394C184.45 105.978 185.154 105.371 185.686 104.625L185.758 104.541C186.401 103.595 186.743 102.478 186.739 101.334C186.737 101.001 186.705 100.669 186.643 100.341C186.643 100.258 186.643 100.162 186.583 100.078C186.532 99.8335 186.46 99.5934 186.368 99.3604C186.313 99.1959 186.245 99.0359 186.165 98.8818C185.696 99.8542 184.962 100.674 184.048 101.248C183.133 101.822 182.076 102.125 180.996 102.124H162.966C161.88 102.123 160.816 101.813 159.898 101.231C158.981 100.648 158.248 99.8171 157.786 98.834C157.714 98.9895 157.642 99.1451 157.582 99.3126C157.496 99.5473 157.424 99.7871 157.367 100.03C157.361 100.118 157.361 100.206 157.367 100.294C157.282 100.635 157.23 100.983 157.211 101.334Z" fill="#61150D"/>
<path d="M171.927 110.26C170.947 110.266 169.998 110.608 169.238 111.228C168.479 111.848 167.954 112.71 167.752 113.67C167.689 113.952 167.657 114.241 167.656 114.531V119.006C167.656 120.138 168.106 121.225 168.907 122.026C169.708 122.827 170.795 123.277 171.927 123.277C173.06 123.277 174.147 122.827 174.948 122.026C175.749 121.225 176.199 120.138 176.199 119.006V114.531C176.196 114.242 176.168 113.954 176.115 113.67C175.912 112.708 175.386 111.845 174.624 111.224C173.862 110.604 172.91 110.263 171.927 110.26Z" fill="black"/>
<path d="M243.831 107.077H225.765C224.847 107.085 223.94 106.871 223.122 106.455C222.304 106.038 221.598 105.431 221.063 104.684C220.475 105.544 220.132 106.548 220.071 107.588C220.009 108.628 220.232 109.666 220.715 110.589C221.198 111.512 221.924 112.287 222.813 112.829C223.703 113.372 224.723 113.662 225.765 113.669H230.551C230.745 112.702 231.269 111.831 232.032 111.206C232.796 110.581 233.752 110.239 234.739 110.239C235.725 110.239 236.681 110.581 237.445 111.206C238.208 111.831 238.732 112.702 238.926 113.669H243.712C244.77 113.685 245.813 113.408 246.724 112.869C247.636 112.329 248.38 111.549 248.875 110.613C249.371 109.677 249.597 108.622 249.531 107.565C249.464 106.508 249.106 105.49 248.497 104.624C247.973 105.377 247.276 105.993 246.464 106.42C245.652 106.847 244.749 107.072 243.831 107.077Z" fill="#F37B67"/>
<path d="M220.621 98.882C221.09 99.8489 221.821 100.665 222.73 101.238C223.639 101.811 224.691 102.118 225.766 102.124H243.832C244.918 102.123 245.982 101.814 246.899 101.231C247.817 100.649 248.549 99.8172 249.012 98.8341C248.549 97.851 247.817 97.0197 246.899 96.4371C245.982 95.8546 244.918 95.5448 243.832 95.5439H225.766C224.681 95.5587 223.622 95.8799 222.712 96.4706C221.801 97.0612 221.077 97.8971 220.621 98.882ZM229.57 96.1422H240.123C240.599 96.1422 241.055 96.3312 241.392 96.6678C241.728 97.0043 241.917 97.4608 241.917 97.9368C241.917 98.4127 241.728 98.8692 241.392 99.2058C241.055 99.5423 240.599 99.7314 240.123 99.7314H229.63C229.154 99.7314 228.698 99.5423 228.361 99.2058C228.025 98.8692 227.835 98.4127 227.835 97.9368C227.835 97.4608 228.025 97.0043 228.361 96.6678C228.698 96.3312 229.154 96.1422 229.63 96.1422H229.57Z" fill="#87221A"/>
<path d="M229.57 99.7318H240.123C240.599 99.7318 241.055 99.5428 241.392 99.2062C241.728 98.8696 241.917 98.4132 241.917 97.9372C241.917 97.4612 241.728 97.0048 241.392 96.6682C241.055 96.3317 240.599 96.1426 240.123 96.1426H229.63C229.154 96.1426 228.698 96.3317 228.361 96.6682C228.025 97.0048 227.835 97.4612 227.835 97.9372C227.835 98.4132 228.025 98.8696 228.361 99.2062C228.698 99.5428 229.154 99.7318 229.63 99.7318H229.57Z" fill="#BB342F"/>
<path d="M243.831 102.124H225.765C224.679 102.12 223.616 101.809 222.699 101.227C221.783 100.645 221.049 99.8153 220.584 98.834C220.513 98.9895 220.453 99.1451 220.393 99.3126C220.297 99.5452 220.221 99.7853 220.166 100.03C220.171 100.118 220.171 100.206 220.166 100.294C220.104 100.621 220.071 100.953 220.07 101.287C220.066 102.43 220.408 103.548 221.051 104.493C221.051 104.493 221.051 104.493 221.051 104.577C221.585 105.324 222.291 105.931 223.109 106.348C223.928 106.764 224.835 106.978 225.753 106.97H243.831C244.749 106.978 245.656 106.764 246.474 106.348C247.292 105.931 247.999 105.324 248.533 104.577C248.764 104.245 248.965 103.893 249.131 103.524C249.424 102.815 249.575 102.054 249.574 101.287C249.572 100.953 249.54 100.621 249.478 100.294C249.483 100.206 249.483 100.118 249.478 100.03C249.422 99.7853 249.346 99.5452 249.25 99.3126C249.191 99.1451 249.131 98.9895 249.059 98.834C248.593 99.8245 247.853 100.661 246.926 101.244C246 101.827 244.925 102.132 243.831 102.124Z" fill="#61150D"/>
<path d="M234.822 110.26C233.839 110.263 232.887 110.604 232.125 111.224C231.363 111.845 230.837 112.708 230.634 113.67C230.576 113.953 230.548 114.242 230.551 114.531V119.006C230.551 120.138 231.001 121.225 231.802 122.026C232.603 122.827 233.689 123.277 234.822 123.277C235.955 123.277 237.041 122.827 237.842 122.026C238.643 121.225 239.093 120.138 239.093 119.006V114.531C239.092 114.241 239.06 113.952 238.997 113.67C238.795 112.71 238.271 111.848 237.511 111.228C236.751 110.608 235.802 110.266 234.822 110.26Z" fill="black"/>
<path d="M154.22 87.5998H198.356C199.218 87.5998 200.079 87.5998 200.928 87.528C211.607 86.983 221.826 83.0145 230.073 76.2099C230.863 75.5639 231.617 74.8939 232.358 74.1999L232.885 73.6855C233.471 73.1232 234.081 72.5609 234.584 71.9746C234.739 71.8191 234.883 71.6516 235.026 71.496C235.637 70.838 236.223 70.168 236.785 69.4861L237.012 69.2109C237.658 68.4093 238.293 67.5957 238.903 66.7463C242.307 62.0046 244.847 56.6987 246.404 51.0732C246.679 50.0802 246.919 49.0632 247.134 48.0343C247.134 47.8907 247.134 47.7352 247.23 47.5916C247.397 46.7182 247.553 45.8448 247.684 44.9595C247.684 44.7202 247.756 44.4809 247.78 44.2297C247.888 43.4161 247.972 42.5906 248.043 41.7651L248.115 40.9635C248.115 39.8987 248.223 38.8338 248.223 37.7571V33.3662C243.922 42.146 237.245 49.5436 228.95 54.7188C220.656 59.8939 211.076 62.6391 201.299 62.6426H162.703C156.071 62.6426 149.711 65.277 145.022 69.9664C140.332 74.6558 137.698 81.0159 137.698 87.6477H154.22V87.5998Z" fill="#61150D"/>
<path d="M200.4 24.7518H237.107C237.79 24.8609 238.489 24.8204 239.156 24.6331C239.822 24.4458 240.44 24.1161 240.967 23.6668C241.493 23.2175 241.916 22.6594 242.206 22.0308C242.496 21.4022 242.647 20.7182 242.647 20.0259C242.647 19.3336 242.496 18.6496 242.206 18.021C241.916 17.3924 241.493 16.8343 240.967 16.385C240.44 15.9357 239.822 15.6061 239.156 15.4187C238.489 15.2314 237.79 15.1909 237.107 15.3001H200.4C199.276 15.4795 198.253 16.0539 197.514 16.92C196.775 17.7862 196.369 18.8874 196.369 20.0259C196.369 21.1644 196.775 22.2656 197.514 23.1318C198.253 23.9979 199.276 24.5723 200.4 24.7518Z" fill="#BB342F"/>
<path d="M168.673 40.8079H208.154C209.141 40.8079 210.088 40.4159 210.785 39.7181C211.483 39.0203 211.875 38.0739 211.875 37.0871C211.875 36.1002 211.483 35.1538 210.785 34.456C210.088 33.7582 209.141 33.3662 208.154 33.3662H168.673C167.686 33.3662 166.739 33.7582 166.041 34.456C165.344 35.1538 164.952 36.1002 164.952 37.0871C164.952 38.0739 165.344 39.0203 166.041 39.7181C166.739 40.4159 167.686 40.8079 168.673 40.8079Z" fill="#BB342F"/>
<path d="M148.345 57.7493H160.764C161.649 57.7493 162.498 57.3976 163.124 56.7716C163.75 56.1456 164.102 55.2965 164.102 54.4112C164.102 53.526 163.75 52.6769 163.124 52.0509C162.498 51.4249 161.649 51.0732 160.764 51.0732H148.345C147.46 51.0732 146.611 51.4249 145.985 52.0509C145.359 52.6769 145.007 53.526 145.007 54.4112C145.007 55.2965 145.359 56.1456 145.985 56.7716C146.611 57.3976 147.46 57.7493 148.345 57.7493Z" fill="#BB342F"/>
<path d="M255.593 166.468C256.25 166.465 256.88 166.201 257.344 165.735C257.809 165.268 258.069 164.637 258.069 163.979V146.033C258.025 145.404 257.745 144.816 257.284 144.386C256.823 143.956 256.217 143.717 255.587 143.717C254.956 143.717 254.35 143.956 253.889 144.386C253.428 144.816 253.148 145.404 253.104 146.033V163.979C253.104 164.639 253.366 165.272 253.833 165.739C254.3 166.206 254.933 166.468 255.593 166.468Z" fill="#BB342F"/>
<path d="M159.065 168.454C159.656 168.454 160.222 168.219 160.639 167.802C161.056 167.385 161.291 166.819 161.291 166.228V143.03C161.249 142.466 160.996 141.939 160.583 141.555C160.169 141.17 159.625 140.956 159.059 140.956C158.494 140.956 157.95 141.17 157.536 141.555C157.122 141.939 156.869 142.466 156.828 143.03V166.228C156.831 166.82 157.068 167.386 157.488 167.803C157.907 168.22 158.474 168.454 159.065 168.454Z" fill="#BB342F"/>
<path d="M171.927 182.703C172.594 182.7 173.234 182.433 173.704 181.96C174.175 181.486 174.44 180.846 174.44 180.179V168.98C174.44 168.314 174.175 167.675 173.704 167.204C173.232 166.732 172.593 166.468 171.927 166.468C171.261 166.468 170.622 166.732 170.15 167.204C169.679 167.675 169.415 168.314 169.415 168.98V180.179C169.415 180.846 169.679 181.486 170.15 181.96C170.621 182.433 171.26 182.7 171.927 182.703Z" fill="#BB342F"/>
<path d="M239.094 182.704C239.761 182.7 240.4 182.433 240.871 181.96C241.342 181.487 241.606 180.847 241.606 180.179V168.981C241.562 168.343 241.278 167.745 240.81 167.309C240.343 166.873 239.727 166.63 239.088 166.63C238.448 166.63 237.833 166.873 237.365 167.309C236.898 167.745 236.613 168.343 236.569 168.981V180.179C236.569 180.849 236.835 181.491 237.309 181.964C237.782 182.438 238.424 182.704 239.094 182.704Z" fill="#BB342F"/>
<path d="M220.058 160.629H180.11C180.113 167.067 182.482 173.279 186.767 178.085C191.052 182.89 196.953 185.953 203.348 186.691C209.744 187.43 216.188 185.792 221.455 182.09C226.722 178.388 230.444 172.879 231.915 166.611C232.367 164.649 232.596 162.642 232.597 160.629H220.058Z" fill="white"/>
<path d="M27.9502 664.835C23.5875 661.271 20.0723 656.781 17.6595 651.691C15.2466 646.6 13.9966 641.037 14 635.403V665.314C14 669.144 15.5214 672.817 18.2296 675.525C20.9378 678.233 24.6108 679.755 28.4408 679.755C28.5963 679.755 28.7279 679.755 28.8715 679.755C28.2778 678.166 27.966 676.485 27.9502 674.789V664.835Z" fill="#DA9280"/>
<path d="M47.5002 673.15C40.3052 672.316 33.5022 669.429 27.9028 664.835V674.729C27.9372 678.549 29.4696 682.202 32.1704 684.902C34.8712 687.603 38.5243 689.136 42.3436 689.17C44.7154 689.153 47.046 688.549 49.1273 687.411C48.0767 685.397 47.519 683.162 47.5002 680.891V673.15Z" fill="#DD9D87"/>
<path d="M67.7422 673.449H52.0452C50.541 673.44 49.0388 673.341 47.5466 673.15V680.891C47.532 683.384 48.1666 685.837 49.3878 688.01C50.609 690.183 52.3749 692 54.5117 693.283C56.6484 694.566 59.0825 695.271 61.5743 695.329C64.0661 695.386 66.5299 694.793 68.7232 693.609C68.085 691.973 67.7525 690.233 67.7422 688.477V673.449Z" fill="#E2AD8E"/>
<path d="M96.6362 673.45V674.503C99.5193 674.498 102.335 673.631 104.721 672.013C107.107 670.395 108.954 668.099 110.024 665.422H96.6362V673.45Z" fill="#DEA690"/>
<path d="M64.1778 413.074H14C14 410.382 14.0957 407.714 14.2034 405.058H14V465.357H95.0812C81.2976 450.237 70.7777 432.439 64.1778 413.074Z" fill="#DEA690"/>
<path d="M96.6366 665.422V467.032C96.1221 466.481 95.5837 465.955 95.0812 465.393H14V635.404C13.9961 644.705 17.404 653.685 23.5781 660.642C29.7522 667.599 38.2636 672.049 47.4997 673.151C48.9918 673.341 50.4941 673.441 51.9982 673.45H67.7431V688.477C67.6875 690.409 68.02 692.332 68.721 694.134C69.422 695.935 70.4773 697.578 71.8243 698.964C73.1713 700.35 74.7827 701.452 76.5631 702.205C78.3436 702.957 80.2569 703.345 82.1898 703.345C84.1228 703.345 86.0361 702.957 87.8166 702.205C89.597 701.452 91.2084 700.35 92.5554 698.964C93.9024 697.578 94.9577 695.935 95.6587 694.134C96.3597 692.332 96.6922 690.409 96.6366 688.477V665.422ZM66.5587 630.187H26.9692C25.7991 630.127 24.6966 629.62 23.8896 628.771C23.0826 627.921 22.6326 626.795 22.6326 625.623C22.6326 624.451 23.0826 623.324 23.8896 622.475C24.6966 621.625 25.7991 621.118 26.9692 621.059H66.5587C67.7288 621.118 68.8312 621.625 69.6382 622.475C70.4452 623.324 70.8952 624.451 70.8952 625.623C70.8952 626.795 70.4452 627.921 69.6382 628.771C68.8312 629.62 67.7288 630.127 66.5587 630.187ZM66.5587 613.043H26.9692C25.7602 613.043 24.6008 612.562 23.7459 611.707C22.8911 610.853 22.4108 609.693 22.4108 608.484C22.4108 607.275 22.8911 606.116 23.7459 605.261C24.6008 604.406 25.7602 603.926 26.9692 603.926H66.5587C67.7676 603.926 68.927 604.406 69.7819 605.261C70.6367 606.116 71.117 607.275 71.117 608.484C71.117 609.693 70.6367 610.853 69.7819 611.707C68.927 612.562 67.7676 613.043 66.5587 613.043ZM66.5587 595.91H26.9692C25.7991 595.85 24.6966 595.343 23.8896 594.493C23.0826 593.644 22.6326 592.517 22.6326 591.345C22.6326 590.174 23.0826 589.047 23.8896 588.198C24.6966 587.348 25.7991 586.841 26.9692 586.781H66.5587C67.7288 586.841 68.8312 587.348 69.6382 588.198C70.4452 589.047 70.8952 590.174 70.8952 591.345C70.8952 592.517 70.4452 593.644 69.6382 594.493C68.8312 595.343 67.7288 595.85 66.5587 595.91Z" fill="#E6BD9A"/>
<path d="M66.5588 586.781H26.9694C25.7992 586.841 24.6968 587.348 23.8898 588.198C23.0828 589.047 22.6328 590.174 22.6328 591.346C22.6328 592.517 23.0828 593.644 23.8898 594.494C24.6968 595.343 25.7992 595.85 26.9694 595.91H66.5588C67.729 595.85 68.8314 595.343 69.6384 594.494C70.4454 593.644 70.8954 592.517 70.8954 591.346C70.8954 590.174 70.4454 589.047 69.6384 588.198C68.8314 587.348 67.729 586.841 66.5588 586.781Z" fill="#E2AD8E"/>
<path d="M66.5585 603.926H26.969C25.76 603.926 24.6006 604.406 23.7458 605.261C22.8909 606.116 22.4106 607.275 22.4106 608.484C22.4106 609.693 22.8909 610.852 23.7458 611.707C24.6006 612.562 25.76 613.042 26.969 613.042H66.5585C67.7674 613.042 68.9269 612.562 69.7817 611.707C70.6366 610.852 71.1168 609.693 71.1168 608.484C71.1168 607.275 70.6366 606.116 69.7817 605.261C68.9269 604.406 67.7674 603.926 66.5585 603.926Z" fill="#E2AD8E"/>
<path d="M66.5588 621.059H26.9694C25.7992 621.119 24.6968 621.626 23.8898 622.475C23.0828 623.324 22.6328 624.451 22.6328 625.623C22.6328 626.795 23.0828 627.921 23.8898 628.771C24.6968 629.62 25.7992 630.127 26.9694 630.187H66.5588C67.729 630.127 68.8314 629.62 69.6384 628.771C70.4454 627.921 70.8954 626.795 70.8954 625.623C70.8954 624.451 70.4454 623.324 69.6384 622.475C68.8314 621.626 67.729 621.119 66.5588 621.059Z" fill="#E2AD8E"/>
<path d="M382.496 664.835V674.73C382.481 676.427 382.165 678.108 381.562 679.695H381.993C383.89 679.697 385.769 679.324 387.521 678.599C389.274 677.874 390.867 676.81 392.208 675.469C393.549 674.128 394.613 672.535 395.338 670.782C396.063 669.03 396.436 667.151 396.434 665.254V635.344C396.446 640.986 395.201 646.56 392.79 651.661C390.38 656.763 386.863 661.263 382.496 664.835Z" fill="#DA9280"/>
<path d="M382.496 664.835C376.891 669.427 370.085 672.313 362.887 673.15V680.891C362.869 683.161 362.315 685.395 361.272 687.411C363.348 688.552 365.675 689.157 368.044 689.17C371.861 689.127 375.51 687.592 378.211 684.893C380.912 682.195 382.45 678.547 382.496 674.729V664.835Z" fill="#DD9D87"/>
<path d="M362.888 673.15C361.396 673.341 359.894 673.441 358.39 673.449H342.705V688.476C342.689 690.232 342.356 691.971 341.724 693.609C343.406 694.522 345.256 695.086 347.162 695.268C349.068 695.45 350.991 695.245 352.816 694.667C354.641 694.088 356.331 693.148 357.784 691.901C359.237 690.654 360.424 689.128 361.273 687.412C362.317 685.395 362.87 683.161 362.888 680.891V673.15Z" fill="#E2AD8E"/>
<path d="M313.81 665.422H300.422C301.491 668.1 303.337 670.396 305.724 672.015C308.11 673.634 310.926 674.5 313.81 674.503V665.422Z" fill="#DEA690"/>
<path d="M313.809 467.031V665.421V688.476C313.795 691.858 314.97 695.138 317.128 697.741C319.287 700.344 322.292 702.106 325.619 702.718C328.945 703.329 332.38 702.752 335.324 701.087C338.268 699.422 340.532 696.775 341.722 693.609C342.355 691.971 342.687 690.232 342.703 688.476V673.449H358.388C359.892 673.441 361.394 673.341 362.886 673.15C372.124 672.054 380.639 667.605 386.814 660.647C392.989 653.689 396.395 644.706 396.386 635.403V465.356H315.365C314.85 465.919 314.3 466.445 313.809 467.031ZM343.887 586.817H383.465C384.635 586.877 385.737 587.384 386.544 588.233C387.351 589.083 387.801 590.209 387.801 591.381C387.801 592.553 387.351 593.68 386.544 594.529C385.737 595.379 384.635 595.886 383.465 595.945H343.887C342.717 595.886 341.615 595.379 340.808 594.529C340.001 593.68 339.551 592.553 339.551 591.381C339.551 590.209 340.001 589.083 340.808 588.233C341.615 587.384 342.717 586.877 343.887 586.817ZM343.887 603.961H383.465C384.674 603.961 385.833 604.442 386.688 605.297C387.543 606.151 388.023 607.311 388.023 608.52C388.023 609.729 387.543 610.888 386.688 611.743C385.833 612.598 384.674 613.078 383.465 613.078H343.887C342.678 613.078 341.519 612.598 340.664 611.743C339.809 610.888 339.329 609.729 339.329 608.52C339.329 607.311 339.809 606.151 340.664 605.297C341.519 604.442 342.678 603.961 343.887 603.961ZM343.887 621.094H383.465C384.635 621.154 385.737 621.661 386.544 622.511C387.351 623.36 387.801 624.487 387.801 625.659C387.801 626.83 387.351 627.957 386.544 628.807C385.737 629.656 384.635 630.163 383.465 630.223H343.887C342.717 630.163 341.615 629.656 340.808 628.807C340.001 627.957 339.551 626.83 339.551 625.659C339.551 624.487 340.001 623.36 340.808 622.511C341.615 621.661 342.717 621.154 343.887 621.094Z" fill="#E6BD9A"/>
<path d="M346.305 413.073C345.934 414.138 345.563 415.191 345.18 416.244C344.797 417.297 344.331 418.517 343.888 419.654C342.56 423.027 341.1 426.353 339.533 429.608C337.443 433.947 335.15 438.17 332.653 442.278C330.165 446.37 327.485 450.342 324.626 454.158C321.766 457.975 318.643 461.779 315.365 465.357H396.435V413.073H346.305Z" fill="#DEA690"/>
<path d="M396.232 405.058C396.352 407.714 396.436 410.382 396.436 413.074V405.058H396.232Z" fill="#DEA690"/>
<path d="M343.889 595.91H383.466C384.636 595.85 385.739 595.343 386.546 594.494C387.353 593.644 387.803 592.517 387.803 591.346C387.803 590.174 387.353 589.047 386.546 588.198C385.739 587.348 384.636 586.841 383.466 586.781H343.889C342.719 586.841 341.616 587.348 340.809 588.198C340.002 589.047 339.552 590.174 339.552 591.346C339.552 592.517 340.002 593.644 340.809 594.494C341.616 595.343 342.719 595.85 343.889 595.91Z" fill="#E2AD8E"/>
<path d="M343.888 612.995H383.466C384.675 612.995 385.834 612.514 386.689 611.66C387.544 610.805 388.024 609.645 388.024 608.436C388.024 607.227 387.544 606.068 386.689 605.213C385.834 604.358 384.675 603.878 383.466 603.878H343.888C342.679 603.878 341.52 604.358 340.665 605.213C339.81 606.068 339.33 607.227 339.33 608.436C339.33 609.645 339.81 610.805 340.665 611.66C341.52 612.514 342.679 612.995 343.888 612.995Z" fill="#E2AD8E"/>
<path d="M343.889 630.187H383.466C384.636 630.127 385.739 629.62 386.546 628.771C387.353 627.921 387.803 626.795 387.803 625.623C387.803 624.451 387.353 623.324 386.546 622.475C385.739 621.626 384.636 621.119 383.466 621.059H343.889C342.719 621.119 341.616 621.626 340.809 622.475C340.002 623.324 339.552 624.451 339.552 625.623C339.552 626.795 340.002 627.921 340.809 628.771C341.616 629.62 342.719 630.127 343.889 630.187Z" fill="#E2AD8E"/>
<path d="M285.587 239.545L285.084 239.222V322.708C285.076 325.943 285.706 329.148 286.938 332.14C288.169 335.132 289.979 337.852 292.262 340.144C294.545 342.437 297.258 344.256 300.245 345.5C303.232 346.743 306.435 347.385 309.67 347.39H353.148C351.084 329.946 345.935 313.009 337.942 297.368C357.119 324.61 367.392 357.122 367.35 390.437C367.35 398.042 366.818 405.638 365.759 413.169H396.435C396.435 410.477 396.351 407.809 396.231 405.153C394.783 370.048 383.69 336.021 364.172 306.807C344.653 277.592 317.463 254.32 285.587 239.545Z" fill="white"/>
<path d="M44.6762 413.073C43.6168 405.542 43.0851 397.946 43.0849 390.341C43.0425 357.026 53.3154 324.514 72.4929 297.272C64.4876 312.941 59.3421 329.913 57.2984 347.39H100.764C107.296 347.39 113.56 344.796 118.179 340.179C122.799 335.562 125.395 329.299 125.398 322.768V239.222L124.896 239.545C93.0233 254.305 65.8321 277.559 46.3057 306.756C26.7794 335.952 15.6724 369.963 14.2034 405.057C14.0957 407.713 14 410.381 14 413.073H44.6762Z" fill="white"/>
<path d="M353.245 348.155C353.485 350.249 353.664 352.367 353.82 354.496C353.82 355.035 353.927 355.561 353.963 356.099C353.963 356.255 353.963 356.41 353.963 356.554C354.119 359.354 354.214 362.177 354.214 365.013C354.214 366.939 354.214 368.865 354.107 370.767C353.891 376.441 353.352 382.097 352.492 387.709C352.324 388.833 352.133 389.97 351.941 391.095C351.786 391.968 351.606 392.853 351.439 393.727L351.331 394.265C350.063 400.637 348.38 406.92 346.294 413.073H365.748C366.807 405.542 367.339 397.946 367.339 390.341C367.382 357.025 357.109 324.514 337.931 297.271C345.939 312.942 351.092 329.912 353.15 347.389C353.209 347.605 353.221 347.88 353.245 348.155Z" fill="#E3E2EE"/>
<path d="M56.2215 364.905C56.2215 362.105 56.3053 359.314 56.4728 356.53C56.4728 355.824 56.5804 355.142 56.6283 354.448C56.7719 352.319 56.9513 350.213 57.1906 348.119C57.1906 347.844 57.1906 347.569 57.2624 347.294C59.3173 329.85 64.4624 312.911 72.4569 297.271C53.2795 324.514 43.0065 357.025 43.049 390.341C43.0491 397.946 43.5808 405.542 44.6402 413.073H64.1418C58.8657 397.599 56.1736 381.361 56.1737 365.013C56.1737 365.013 56.2215 364.941 56.2215 364.905Z" fill="#E3E2EE"/>
<path d="M276.014 233.898C278.79 235.406 281.506 237.021 284.174 238.684C281.554 237.021 278.838 235.406 276.014 233.898Z" fill="white"/>
<path d="M126.212 238.696C128.88 237.021 131.596 235.406 134.384 233.91C131.596 235.406 128.856 237.021 126.212 238.696Z" fill="white"/>
<path d="M168.469 316.128H241.965C248.499 316.128 254.765 313.532 259.384 308.912C264.004 304.293 266.6 298.027 266.6 291.493V229.28L265.008 228.562V229.531C264.983 242.882 259.668 255.679 250.228 265.119C240.787 274.56 227.99 279.875 214.639 279.9H197.315C183.956 279.9 171.145 274.593 161.699 265.147C152.253 255.701 146.946 242.89 146.946 229.531V227.88C145.905 228.323 144.9 228.801 143.871 229.268V291.481C143.868 294.715 144.502 297.917 145.736 300.906C146.971 303.894 148.782 306.61 151.066 308.899C153.35 311.188 156.063 313.004 159.049 314.244C162.035 315.485 165.236 316.125 168.469 316.128Z" fill="white"/>
<path d="M353.783 354.496C353.627 352.367 353.448 350.249 353.208 348.155C353.484 350.249 353.663 352.367 353.783 354.496Z" fill="white"/>
<path d="M57.1902 348.155C56.951 350.249 56.7715 352.355 56.6279 354.484C56.7715 352.367 56.951 350.249 57.1902 348.155Z" fill="white"/>
<path d="M134.383 705.382V967.29C136.569 966.961 138.776 966.789 140.987 966.775C147.225 966.774 153.402 968.001 159.166 970.388C164.929 972.774 170.166 976.273 174.577 980.684C178.987 985.094 182.486 990.331 184.872 996.095C187.259 1001.86 188.486 1008.04 188.485 1014.27H204.337V705.382H134.383ZM183.436 951.976C183.436 953.143 182.972 954.263 182.146 955.089C181.321 955.915 180.201 956.378 179.033 956.378C177.865 956.378 176.746 955.915 175.92 955.089C175.094 954.263 174.63 953.143 174.63 951.976V770.922C174.63 769.754 175.094 768.634 175.92 767.808C176.746 766.983 177.865 766.519 179.033 766.519C180.201 766.519 181.321 766.983 182.146 767.808C182.972 768.634 183.436 769.754 183.436 770.922V951.976Z" fill="#0E1828"/>
<path d="M204.339 705.382V1014.27H221.95C221.95 1001.68 226.954 989.595 235.862 980.687C244.769 971.78 256.851 966.775 269.448 966.775C271.663 966.789 273.874 966.961 276.064 967.29V705.382H204.339ZM249.48 726.032C249.448 725.403 249.544 724.775 249.763 724.185C249.981 723.594 250.317 723.055 250.751 722.598C251.185 722.142 251.707 721.779 252.285 721.531C252.864 721.282 253.486 721.154 254.116 721.154C254.745 721.154 255.368 721.282 255.947 721.531C256.525 721.779 257.047 722.142 257.481 722.598C257.914 723.055 258.251 723.594 258.469 724.185C258.688 724.775 258.784 725.403 258.752 726.032V826.818C258.692 828.007 258.177 829.127 257.314 829.947C256.451 830.767 255.306 831.225 254.116 831.225C252.925 831.225 251.781 830.767 250.918 829.947C250.055 829.127 249.54 828.007 249.48 826.818V726.032ZM214.485 836.306C214.485 835.021 214.995 833.788 215.904 832.88C216.812 831.971 218.045 831.46 219.33 831.46C220.615 831.46 221.848 831.971 222.756 832.88C223.665 833.788 224.175 835.021 224.175 836.306V950.265C224.175 951.55 223.665 952.782 222.756 953.691C221.848 954.6 220.615 955.11 219.33 955.11C218.045 955.11 216.812 954.6 215.904 953.691C214.995 952.782 214.485 951.55 214.485 950.265V836.306Z" fill="#192D3E"/>
<path d="M204.337 699.914C178.631 699.736 153.83 690.405 134.383 673.593V705.334H204.337V699.914Z" fill="black"/>
<path d="M205.224 699.926H204.339V705.394H276.016V673.641C256.334 690.643 231.186 699.987 205.176 699.962L205.224 699.926Z" fill="#0E1828"/>
<path d="M343.889 419.653C342.561 423.027 341.101 426.353 339.534 429.608C341.101 426.353 342.561 423.027 343.889 419.653Z" fill="#813025"/>
<path d="M100.764 347.389H59.8701C65.7391 373.279 78.4342 397.124 96.636 416.447V591.339C96.5976 618.848 107.041 645.339 125.841 665.421H284.593C303.402 645.343 313.85 618.851 313.81 591.339V416.387C331.999 397.08 344.689 373.256 350.564 347.389H309.67C303.14 347.389 296.877 344.795 292.26 340.178C287.642 335.56 285.048 329.297 285.048 322.767V239.173L284.222 238.695C281.554 237.02 278.839 235.405 276.063 233.909L275.8 233.778C273.144 232.342 270.428 231.014 267.676 229.746C267.305 229.578 266.958 229.375 266.599 229.207V291.505C266.599 298.038 264.004 304.304 259.384 308.924C254.764 313.544 248.498 316.139 241.965 316.139H168.469C165.235 316.139 162.032 315.502 159.044 314.264C156.056 313.025 153.341 311.211 151.054 308.923C148.768 306.635 146.954 303.92 145.718 300.931C144.481 297.942 143.845 294.739 143.847 291.505V229.195C143.476 229.363 143.129 229.566 142.77 229.734C140.006 231.002 137.29 232.33 134.634 233.766L134.383 233.897C131.595 235.405 128.88 237.02 126.211 238.683C125.948 238.85 125.661 238.994 125.398 239.161V322.695C125.406 325.935 124.774 329.145 123.54 332.141C122.305 335.137 120.492 337.859 118.204 340.153C115.916 342.447 113.197 344.267 110.205 345.509C107.212 346.75 104.004 347.389 100.764 347.389ZM215.165 386.417H283.098V420.371C283.098 429.38 279.52 438.021 273.15 444.393C266.78 450.765 258.141 454.346 249.131 454.349C240.122 454.346 231.483 450.765 225.113 444.393C218.743 438.021 215.165 429.38 215.165 420.371V386.417ZM253.283 523.394V518.693H273.742V523.394H313.343V543.901H273.742V583.634H253.283V543.901H96.8394V523.394H253.283Z" fill="#85221A"/>
<path d="M204.339 665.422H125.842C128.535 668.318 131.387 671.062 134.385 673.641C153.832 690.453 178.633 699.785 204.339 699.962H205.225C220.117 699.984 234.853 696.93 248.511 690.993C262.168 685.056 274.453 676.362 284.595 665.458H204.339V665.422Z" fill="#85221A"/>
<path d="M351.952 391.095C352.143 389.97 352.335 388.834 352.502 387.709C352.335 388.834 352.143 389.97 351.952 391.095Z" fill="#813025"/>
<path d="M351.39 394.265L351.497 393.727L351.39 394.265Z" fill="#813025"/>
<path d="M352.503 387.709C353.364 382.097 353.903 376.441 354.118 370.768C353.903 376.441 353.364 382.097 352.503 387.709Z" fill="#813025"/>
<path d="M96.6367 416.387C78.4441 397.081 65.7497 373.257 59.8708 347.39H57.2626C57.2626 347.665 57.2626 347.94 57.1908 348.215C56.9515 350.309 56.772 352.427 56.6285 354.544C56.6285 355.238 56.5088 355.92 56.4729 356.626C56.3054 359.386 56.2217 362.177 56.2217 365.001C56.2217 365.001 56.2217 365.073 56.2217 365.109C56.2438 402.197 70.1003 437.943 95.0813 465.356C95.5838 465.919 96.1222 466.445 96.6367 466.996V416.387Z" fill="#602218"/>
<path d="M313.811 465.357V467.032C314.325 466.481 314.851 465.955 315.366 465.393C318.62 461.803 321.719 458.082 324.626 454.194C327.533 450.306 330.166 446.405 332.654 442.314C335.143 438.222 337.44 433.939 339.534 429.644C341.101 426.389 342.56 423.063 343.889 419.689C344.335 418.557 344.766 417.42 345.181 416.28C345.563 415.227 345.934 414.174 346.305 413.109C348.409 406.945 350.107 400.651 351.39 394.266L351.498 393.727C351.665 392.854 351.845 391.968 352 391.095C352.192 389.97 352.383 388.834 352.551 387.709C353.411 382.097 353.95 376.441 354.166 370.768C354.238 368.866 354.273 366.939 354.273 365.013C354.273 362.178 354.178 359.354 354.022 356.554C354.022 356.411 354.022 356.255 354.022 356.1C354.022 355.561 353.914 355.035 353.879 354.497C353.723 352.367 353.544 350.249 353.304 348.156C353.304 347.88 353.304 347.605 353.233 347.33H350.624C344.76 373.218 332.069 397.064 313.87 416.387L313.811 465.357Z" fill="#61150D"/>
<path d="M249.132 454.302C258.133 454.299 266.765 450.724 273.133 444.363C279.502 438.001 283.085 429.373 283.098 420.372V386.357H215.166V420.372C215.178 429.373 218.762 438.001 225.13 444.363C231.498 450.724 240.131 454.299 249.132 454.302ZM251.369 406.445H260.282C260.511 406.445 260.73 406.536 260.892 406.698C261.053 406.859 261.144 407.078 261.144 407.307C261.144 407.535 261.053 407.754 260.892 407.916C260.73 408.077 260.511 408.168 260.282 408.168H251.369C251.141 408.168 250.922 408.077 250.76 407.916C250.598 407.754 250.508 407.535 250.508 407.307C250.508 407.078 250.598 406.859 250.76 406.698C250.922 406.536 251.141 406.445 251.369 406.445ZM242.91 401.66C243.002 401.648 243.094 401.648 243.186 401.66C244.181 401.706 245.118 402.145 245.79 402.881C246.463 403.616 246.817 404.588 246.775 405.584V416.352H247.708C248.115 416.345 248.512 416.222 248.851 415.998C249.19 415.773 249.458 415.456 249.622 415.083L251.549 411.602H249.335C249.223 411.603 249.111 411.583 249.006 411.541C248.902 411.499 248.807 411.436 248.727 411.357C248.647 411.278 248.583 411.184 248.54 411.08C248.496 410.976 248.474 410.865 248.474 410.752C248.477 410.525 248.569 410.308 248.73 410.147C248.89 409.986 249.108 409.894 249.335 409.891H262.292C262.405 409.891 262.516 409.913 262.62 409.957C262.724 410 262.818 410.064 262.897 410.144C262.976 410.224 263.039 410.319 263.081 410.424C263.123 410.528 263.143 410.64 263.142 410.752C263.144 410.864 263.123 410.976 263.081 411.079C263.038 411.183 262.976 411.277 262.897 411.357C262.817 411.436 262.723 411.498 262.619 411.54C262.516 411.583 262.404 411.603 262.292 411.602H260.043L255.257 419.319L262.053 427.921C262.36 428.314 262.586 428.763 262.718 429.243C262.851 429.723 262.888 430.225 262.827 430.719C262.766 431.214 262.608 431.691 262.362 432.125C262.117 432.558 261.788 432.939 261.395 433.245C261.002 433.551 260.553 433.777 260.073 433.91C259.593 434.043 259.091 434.08 258.597 434.019C258.102 433.958 257.625 433.8 257.192 433.554C256.758 433.308 256.377 432.98 256.071 432.587L249.251 423.937C249.057 423.664 248.798 423.445 248.497 423.298C248.196 423.152 247.863 423.084 247.529 423.099H246.739V430.433C246.695 431.424 246.262 432.357 245.534 433.029C244.806 433.701 243.841 434.058 242.851 434.023C242.355 434.034 241.861 433.947 241.399 433.767C240.937 433.587 240.515 433.318 240.157 432.974C239.799 432.631 239.512 432.22 239.313 431.765C239.115 431.311 239.007 430.822 238.998 430.326V405.572C238.986 405.445 238.986 405.316 238.998 405.189C239.02 404.699 239.138 404.217 239.347 403.773C239.556 403.329 239.851 402.93 240.215 402.601C240.578 402.272 241.004 402.018 241.467 401.854C241.93 401.69 242.42 401.62 242.91 401.648V401.66Z" fill="#61150D"/>
<path d="M253.236 523.396H96.8403V543.902H253.236V523.396Z" fill="#61150D"/>
<path d="M313.344 523.396H273.742V543.902H313.344V523.396Z" fill="#61150D"/>
<path d="M253.235 583.634H273.742V543.901V523.394V518.692H253.235V523.394V543.901V583.634Z" fill="#61150D"/>
<path d="M239.034 430.302C239.043 430.798 239.15 431.287 239.349 431.741C239.548 432.196 239.834 432.607 240.192 432.95C240.55 433.293 240.972 433.563 241.435 433.743C241.897 433.923 242.39 434.01 242.886 433.999C243.877 434.034 244.841 433.677 245.57 433.005C246.298 432.332 246.731 431.4 246.775 430.409V423.075H247.564C247.898 423.059 248.231 423.128 248.532 423.274C248.834 423.42 249.093 423.64 249.287 423.913L256.107 432.563C256.413 432.956 256.794 433.284 257.227 433.53C257.66 433.776 258.138 433.933 258.632 433.995C259.127 434.056 259.628 434.019 260.108 433.886C260.589 433.753 261.038 433.527 261.431 433.221C261.823 432.915 262.152 432.534 262.398 432.1C262.643 431.667 262.801 431.19 262.862 430.695C262.923 430.201 262.887 429.699 262.754 429.219C262.621 428.739 262.395 428.29 262.089 427.897L255.293 419.295L260.079 411.578H262.328C262.44 411.579 262.551 411.558 262.655 411.516C262.759 411.474 262.853 411.412 262.932 411.332C263.011 411.253 263.074 411.159 263.116 411.055C263.158 410.951 263.179 410.84 263.177 410.728C263.179 410.616 263.158 410.504 263.116 410.4C263.074 410.295 263.012 410.2 262.933 410.12C262.854 410.04 262.76 409.976 262.656 409.933C262.552 409.889 262.441 409.867 262.328 409.867H249.359C249.131 409.87 248.914 409.962 248.753 410.123C248.592 410.283 248.5 410.501 248.497 410.728C248.497 410.841 248.52 410.952 248.563 411.056C248.607 411.16 248.67 411.254 248.75 411.333C248.831 411.412 248.926 411.475 249.03 411.517C249.134 411.558 249.246 411.579 249.359 411.578H251.572L249.694 415.035C249.529 415.408 249.261 415.725 248.922 415.95C248.583 416.174 248.186 416.297 247.78 416.304H246.846V405.536C246.889 404.54 246.535 403.568 245.862 402.833C245.189 402.097 244.253 401.658 243.257 401.612C243.166 401.6 243.073 401.6 242.982 401.612C242.491 401.589 242 401.665 241.539 401.833C241.077 402.002 240.653 402.261 240.293 402.595C239.932 402.929 239.641 403.331 239.437 403.779C239.234 404.226 239.121 404.709 239.105 405.201C239.094 405.328 239.094 405.456 239.105 405.584L239.034 430.302Z" fill="#85221A"/>
<path d="M251.368 408.132H260.282C260.51 408.132 260.729 408.041 260.891 407.88C261.052 407.718 261.143 407.499 261.143 407.271C261.143 407.042 261.052 406.823 260.891 406.662C260.729 406.5 260.51 406.409 260.282 406.409H251.368C251.14 406.409 250.921 406.5 250.759 406.662C250.598 406.823 250.507 407.042 250.507 407.271C250.507 407.499 250.598 407.718 250.759 407.88C250.921 408.041 251.14 408.132 251.368 408.132Z" fill="#85221A"/>
</g>
<g filter="url(#filter1_d_0_8918)">
<path fill-rule="evenodd" clip-rule="evenodd" d="M203.149 244.27C203.05 245.5 203 246.744 203 248C203 273.405 223.595 294 249 294H388C413.405 294 434 273.405 434 248C434 222.595 413.405 202 388 202H249C247.652 202 246.318 202.058 245 202.172V202H203V244.27H203.149Z" fill="white"/>
</g>
<path d="M228.495 240H234.659C239.834 240 242.801 236.941 242.801 231.95C242.801 227.258 239.834 223.9 234.659 223.9H228.495V226.338H229.921V237.562H228.495V240ZM232.704 237.447V226.476H234.659C237.994 226.476 239.903 228.615 239.903 231.95C239.903 235.423 237.971 237.447 234.659 237.447H232.704ZM250.907 240.299C253.414 240.299 255.622 239.057 256.404 236.55L253.92 235.952C253.483 237.286 252.218 237.976 250.884 237.976C248.906 237.976 247.595 236.688 247.572 234.664H256.703V233.905C256.703 230.317 254.472 227.649 250.792 227.649C247.549 227.649 244.766 230.202 244.766 233.997C244.766 237.677 247.227 240.299 250.907 240.299ZM247.595 232.686C247.756 231.237 249.067 230.018 250.792 230.018C252.448 230.018 253.805 231.053 253.943 232.686H247.595ZM262.145 226.085C263.134 226.085 263.87 225.349 263.87 224.383C263.87 223.44 263.134 222.704 262.145 222.704C261.156 222.704 260.42 223.44 260.42 224.383C260.42 225.349 261.156 226.085 262.145 226.085ZM260.765 240H263.479V227.948H258.649V230.34H260.765V240ZM267.201 240H269.915V232.893C269.915 231.375 271.042 230.225 272.537 230.225C273.917 230.225 274.975 231.26 274.975 232.755V240H277.689V232.111C277.689 229.627 276.01 227.649 273.365 227.649C271.755 227.649 270.651 228.408 270.122 229.328H269.915V227.948H267.201V240ZM286.238 240.299C288.745 240.299 290.953 239.057 291.735 236.55L289.251 235.952C288.814 237.286 287.549 237.976 286.215 237.976C284.237 237.976 282.926 236.688 282.903 234.664H292.034V233.905C292.034 230.317 289.803 227.649 286.123 227.649C282.88 227.649 280.097 230.202 280.097 233.997C280.097 237.677 282.558 240.299 286.238 240.299ZM282.926 232.686C283.087 231.237 284.398 230.018 286.123 230.018C287.779 230.018 289.136 231.053 289.274 232.686H282.926ZM305.613 240.276C308.971 240.276 311.041 237.953 311.041 235.078C311.041 233.077 309.431 230.455 306.372 230.455V230.248L310.558 227.465V223.9H300.875V226.338H307.821V226.545L303.474 229.466V232.617H305.475C307.361 232.617 308.304 233.744 308.304 235.124C308.304 236.596 307.269 237.7 305.636 237.7C304.21 237.7 303.152 236.757 303.106 235.216H300.53C300.53 237.562 302.186 240.276 305.613 240.276ZM325.495 240.299C329.175 240.299 331.314 238.16 331.314 235.515C331.314 229.006 322.827 231.743 322.827 228.155C322.827 227.166 323.586 226.177 325.426 226.177C327.151 226.177 328.186 227.189 328.186 228.684H330.992C330.992 225.004 328.117 223.601 325.426 223.601C321.976 223.601 320.044 225.74 320.044 228.155C320.044 234.641 328.462 231.605 328.462 235.561C328.462 236.826 327.335 237.654 325.61 237.654C323.678 237.654 322.344 236.481 322.344 234.802H319.538C319.538 238.091 322.183 240.299 325.495 240.299ZM339.518 240.299C342.347 240.299 344.716 238.735 345.406 235.814L342.83 235.193C342.508 236.757 341.22 237.723 339.587 237.723C337.517 237.723 336.045 236.136 336.045 233.974C336.045 231.858 337.471 230.225 339.564 230.225C341.197 230.225 342.485 231.214 342.807 232.778L345.383 232.157C344.693 229.236 342.324 227.649 339.495 227.649C335.815 227.649 333.262 230.455 333.262 233.974C333.262 237.493 335.769 240.299 339.518 240.299ZM348.06 240H350.774V232.824C350.774 231.329 351.947 230.225 353.419 230.225C354.799 230.225 355.926 231.26 355.926 232.755V240H358.64V232.111C358.64 229.627 356.892 227.649 354.247 227.649C352.637 227.649 351.51 228.431 350.981 229.328H350.774V222.75H348.06V240ZM361.851 240H364.565V234.043C364.565 231.766 365.623 230.363 367.601 230.363H368.797V227.649H367.9C366.359 227.649 365.186 228.707 364.726 229.719H364.542V227.948H361.851V240ZM374.135 226.085C375.124 226.085 375.86 225.349 375.86 224.383C375.86 223.44 375.124 222.704 374.135 222.704C373.146 222.704 372.41 223.44 372.41 224.383C372.41 225.349 373.146 226.085 374.135 226.085ZM372.755 240H375.469V227.948H370.639V230.34H372.755V240ZM384.251 240H386.367V237.585H384.274C383.446 237.585 383.101 237.217 383.101 236.366V230.34H386.505V227.948H383.101V224.567H380.525V227.948H378.271V230.34H380.364V236.389C380.364 238.942 381.905 240 384.251 240ZM394.336 240H396.452V237.585H394.359C393.531 237.585 393.186 237.217 393.186 236.366V230.34H396.59V227.948H393.186V224.567H390.61V227.948H388.356V230.34H390.449V236.389C390.449 238.942 391.99 240 394.336 240ZM404.697 240.299C407.204 240.299 409.412 239.057 410.194 236.55L407.71 235.952C407.273 237.286 406.008 237.976 404.674 237.976C402.696 237.976 401.385 236.688 401.362 234.664H410.493V233.905C410.493 230.317 408.262 227.649 404.582 227.649C401.339 227.649 398.556 230.202 398.556 233.997C398.556 237.677 401.017 240.299 404.697 240.299ZM401.385 232.686C401.546 231.237 402.857 230.018 404.582 230.018C406.238 230.018 407.595 231.053 407.733 232.686H401.385ZM228.15 268H237.603V265.746H230.726V265.539L237.488 259.375V255.948H228.334V258.248H234.912V258.455L228.15 264.665V268ZM244.796 268.299C246.406 268.299 247.51 267.54 248.039 266.62H248.246V268H250.96V255.948H248.246V262.986C248.246 264.504 247.119 265.654 245.624 265.654C244.244 265.654 243.186 264.619 243.186 263.124V255.948H240.472V263.837C240.472 266.321 242.151 268.299 244.796 268.299ZM254.42 268H257.134V260.847C257.134 259.26 258.215 258.225 259.526 258.225C260.814 258.225 261.826 259.099 261.826 260.571V268H264.54V260.893C264.54 259.168 265.644 258.225 266.955 258.225C268.289 258.225 269.209 259.122 269.209 260.893V268H271.946V259.996C271.946 257.535 270.175 255.649 267.599 255.649C265.943 255.649 264.747 256.408 264.057 257.604H263.85C263.229 256.454 262.079 255.649 260.423 255.649C258.836 255.649 257.824 256.477 257.341 257.305H257.134V255.948H254.42V268ZM281.379 268H291.338V265.401H284.162V261.1H290.142V258.524H284.162V254.499H291.108V251.9H281.379V268ZM294.109 268H296.823V262.043C296.823 259.766 297.881 258.363 299.859 258.363H301.055V255.649H300.158C298.617 255.649 297.444 256.707 296.984 257.719H296.8V255.948H294.109V268ZM304.553 268H307.267V258.34H310.51V255.948H307.267V254.384C307.267 253.533 307.612 253.119 308.463 253.119H310.441V250.75H308.417C306.094 250.75 304.553 251.808 304.553 254.361V255.948H302.437V258.34H304.553V268ZM318.362 268.299C322.065 268.299 324.733 265.562 324.733 261.974C324.733 258.386 322.088 255.649 318.385 255.649C314.682 255.649 312.014 258.386 312.014 261.974C312.014 265.585 314.659 268.299 318.362 268.299ZM318.362 265.723C316.269 265.723 314.774 264.159 314.774 261.974C314.774 259.835 316.246 258.225 318.362 258.225C320.478 258.225 321.973 259.835 321.973 261.974C321.973 264.136 320.478 265.723 318.362 265.723ZM326.798 268H334.02V265.608H331.766V250.75H326.798V253.165H329.052V265.608H326.798V268ZM338.834 273.29H344.193C346.447 273.29 348.057 272.209 348.057 269.679V255.948H345.389V257.466H345.182C344.676 256.868 343.687 255.649 341.502 255.649C338.259 255.649 335.867 258.363 335.867 261.951C335.867 265.631 338.305 268.299 341.525 268.299C343.572 268.299 344.607 267.31 345.136 266.551H345.343V269.495C345.343 270.369 344.998 270.783 344.17 270.783H338.834V273.29ZM342.008 265.746C340.099 265.746 338.627 264.205 338.627 261.974C338.627 259.697 340.122 258.202 342.031 258.202C344.009 258.202 345.412 259.789 345.412 261.974C345.412 264.228 343.94 265.746 342.008 265.746Z" fill="#4A7081"/>
</g>
<defs>
<filter id="filter0_d_0_8918" x="7" y="1" width="400.436" height="1022.27" filterUnits="userSpaceOnUse" color-interpolation-filters="sRGB">
<feFlood flood-opacity="0" result="BackgroundImageFix"/>
<feColorMatrix in="SourceAlpha" type="matrix" values="0 0 0 0 0 0 0 0 0 0 0 0 0 0 0 0 0 0 127 0" result="hardAlpha"/>
<feOffset dx="2"/>
<feGaussianBlur stdDeviation="4.5"/>
<feComposite in2="hardAlpha" operator="out"/>
<feColorMatrix type="matrix" values="0 0 0 0 0 0 0 0 0 0 0 0 0 0 0 0 0 0 0.25 0"/>
<feBlend mode="normal" in2="BackgroundImageFix" result="effect1_dropShadow_0_8918"/>
<feBlend mode="normal" in="SourceGraphic" in2="effect1_dropShadow_0_8918" result="shape"/>
</filter>
<filter id="filter1_d_0_8918" x="192" y="193" width="249" height="110" filterUnits="userSpaceOnUse" color-interpolation-filters="sRGB">
<feFlood flood-opacity="0" result="BackgroundImageFix"/>
<feColorMatrix in="SourceAlpha" type="matrix" values="0 0 0 0 0 0 0 0 0 0 0 0 0 0 0 0 0 0 127 0" result="hardAlpha"/>
<feOffset dx="-2"/>
<feGaussianBlur stdDeviation="4.5"/>
<feComposite in2="hardAlpha" operator="out"/>
<feColorMatrix type="matrix" values="0 0 0 0 0 0 0 0 0 0 0 0 0 0 0 0 0 0 0.25 0"/>
<feBlend mode="normal" in2="BackgroundImageFix" result="effect1_dropShadow_0_8918"/>
<feBlend mode="normal" in="SourceGraphic" in2="effect1_dropShadow_0_8918" result="shape"/>
</filter>
</defs>
</svg>
