<svg width="55" height="55" viewBox="0 0 55 55" fill="none" xmlns="http://www.w3.org/2000/svg">
<circle cx="27.5" cy="27.5" r="26" fill="#4A7081" stroke="#4A7081" stroke-width="3"/>
<path d="M40.0573 24.908C39.6779 24.4526 39.2032 24.086 38.6666 23.8341C38.1301 23.5821 37.5448 23.4511 36.952 23.45H30.7955L31.5515 21.5195C31.866 20.6743 31.9707 19.7654 31.8567 18.8707C31.7427 17.9761 31.4134 17.1225 30.897 16.3831C30.3805 15.6437 29.6925 15.0406 28.8917 14.6256C28.091 14.2105 27.2015 13.9959 26.2996 14.0001C26.0399 14.0006 25.7858 14.076 25.5679 14.2173C25.35 14.3586 25.1774 14.5597 25.071 14.7966L21.2231 23.45H18.0504C16.9761 23.45 15.9459 23.8767 15.1863 24.6363C14.4267 25.3958 14 26.4259 14 27.5V36.95C14 38.0241 14.4267 39.0543 15.1863 39.8138C15.9459 40.5733 16.9761 41 18.0504 41H35.2373C36.1849 40.9997 37.1023 40.6672 37.83 40.0604C38.5577 39.4537 39.0496 38.611 39.2202 37.679L40.9348 28.229C41.0409 27.645 41.0173 27.0448 40.8656 26.4709C40.714 25.897 40.438 25.3635 40.0573 24.908ZM20.7506 38.3H18.0504C17.6923 38.3 17.3489 38.1578 17.0957 37.9046C16.8425 37.6514 16.7002 37.3081 16.7002 36.95V27.5C16.7002 27.142 16.8425 26.7986 17.0957 26.5454C17.3489 26.2923 17.6923 26.15 18.0504 26.15H20.7506V38.3ZM38.3021 27.743L36.5875 37.193C36.53 37.5075 36.3627 37.7914 36.1154 37.9941C35.8682 38.1968 35.557 38.3052 35.2373 38.3H23.4508V25.0835L27.1231 16.8216C27.5012 16.9317 27.8522 17.1191 28.1542 17.3718C28.4561 17.6245 28.7024 17.937 28.8775 18.2897C29.0526 18.6423 29.1526 19.0274 29.1713 19.4207C29.1901 19.814 29.1271 20.2069 28.9863 20.5745L28.2707 22.505C28.1183 22.9131 28.0668 23.352 28.1207 23.7842C28.1746 24.2165 28.3323 24.6292 28.5804 24.9873C28.8284 25.3454 29.1594 25.6382 29.5451 25.8407C29.9308 26.0431 30.3598 26.1493 30.7955 26.15H36.952C37.1503 26.1497 37.3463 26.1931 37.526 26.2771C37.7057 26.3611 37.8646 26.4836 37.9916 26.636C38.1216 26.7863 38.2169 26.9635 38.2706 27.1548C38.3243 27.3462 38.335 27.547 38.3021 27.743Z" fill="white"/>
</svg>
