<svg width="26" height="48" viewBox="0 0 26 48" fill="none" xmlns="http://www.w3.org/2000/svg">
<path fill-rule="evenodd" clip-rule="evenodd" d="M21.1248 1.32239H4.42146C2.5222 1.32239 0.982548 2.86205 0.982548 4.76131V43.0807C0.982548 44.9799 2.5222 46.5196 4.42146 46.5196H21.1248C23.024 46.5196 24.5637 44.9799 24.5637 43.0807V4.76131C24.5637 2.86205 23.024 1.32239 21.1248 1.32239ZM4.42146 0.339844C1.97956 0.339844 0 2.3194 0 4.76131V43.0807C0 45.5226 1.97956 47.5021 4.42146 47.5021H21.1248C23.5667 47.5021 25.5462 45.5226 25.5462 43.0807V4.76131C25.5462 2.3194 23.5667 0.339844 21.1248 0.339844H4.42146Z" fill="black"/>
<path d="M7.86035 0.339844H17.6858V1.91192C17.6858 3.21427 17.0574 4.27003 16.2822 4.27003H9.26399C8.48878 4.27003 7.86035 3.21427 7.86035 1.91192V0.339844Z" fill="black"/>
<path fill-rule="evenodd" clip-rule="evenodd" d="M19.4992 15.61H12.9743C12.8084 15.6106 12.6494 15.6765 12.5322 15.7934C12.4151 15.9103 12.3493 16.0686 12.3493 16.2337C12.3493 16.3987 12.4151 16.557 12.5322 16.6739C12.6494 16.7908 12.8084 16.8568 12.9743 16.8573H19.4992C19.6652 16.8568 19.8241 16.7908 19.9413 16.6739C20.0585 16.557 20.1243 16.3987 20.1243 16.2337C20.1243 16.0686 20.0585 15.9103 19.9413 15.7934C19.8241 15.6765 19.6652 15.6106 19.4992 15.61ZM19.34 19.3583H20.9895V19.3583C21.1558 19.3583 21.3153 19.2926 21.4329 19.1756C21.5505 19.0587 21.6165 18.9001 21.6165 18.7347C21.6165 18.5693 21.5505 18.4107 21.4329 18.2937C21.3153 18.1768 21.1558 18.1111 20.9895 18.1111H11.5022C11.3359 18.1111 11.1765 18.1768 11.0589 18.2937C10.9413 18.4107 10.8752 18.5693 10.8752 18.7347C10.8752 18.9001 10.9413 19.0587 11.0589 19.1756C11.1765 19.2926 11.3359 19.3583 11.5022 19.3583H13.125L11.7144 21.891C11.593 22.1619 11.3962 22.3926 11.1472 22.5558C10.8982 22.719 10.6073 22.8078 10.3092 22.8118H9.62399V14.9969C9.64007 14.6195 9.57776 14.2429 9.44095 13.8905C9.30414 13.5382 9.09578 13.2176 8.82887 12.949C8.56195 12.6803 8.24222 12.4692 7.88962 12.3289C7.53703 12.1887 7.15914 12.1222 6.77956 12.1336C6.3985 12.1165 6.01806 12.1791 5.66286 12.3174C5.30765 12.4556 4.98558 12.6665 4.71747 12.9364C4.44937 13.2063 4.2412 13.5291 4.10644 13.884C3.97167 14.239 3.91331 14.6181 3.93512 14.9969V33.0174C3.94285 33.3804 4.02269 33.7383 4.17007 34.0704C4.31744 34.4026 4.52942 34.7024 4.79381 34.9528C5.0582 35.2031 5.36977 35.3989 5.71058 35.5289C6.05138 35.659 6.41468 35.7207 6.77956 35.7105C7.15653 35.723 7.53208 35.6584 7.88292 35.5207C8.23376 35.3829 8.55241 35.175 8.8191 34.9097C9.0858 34.6444 9.29486 34.3275 9.43331 33.9785C9.57177 33.6295 9.63667 33.256 9.62399 32.8811V27.7197H10.2066C10.4518 27.7085 10.696 27.759 10.9163 27.8667C11.1366 27.9744 11.3261 28.1356 11.467 28.3355L11.4743 28.3446L16.471 34.6463C16.9241 35.2177 17.5869 35.5868 18.3135 35.6722C19.0402 35.7576 19.7712 35.5525 20.3457 35.1018C20.9203 34.6512 21.2913 33.992 21.3772 33.2693C21.4631 32.5466 21.2568 31.8195 20.8037 31.2481L15.8297 24.9751L19.34 19.3583Z" fill="black"/>
</svg>
