<svg width="24" height="23" viewBox="0 0 24 23" fill="none" xmlns="http://www.w3.org/2000/svg">
<path d="M23.2123 9.01111C23.1413 8.79591 23.0123 8.60689 22.8408 8.46697C22.6693 8.32705 22.4627 8.24225 22.2461 8.22284L15.8535 7.24632L12.9887 1.16369C12.8967 0.964773 12.753 0.797016 12.5742 0.679636C12.3954 0.562256 12.1886 0.5 11.9776 0.5C11.7665 0.5 11.5597 0.562256 11.3809 0.679636C11.2021 0.797016 11.0584 0.964773 10.9664 1.16369L8.10158 7.23456L1.70903 8.22284C1.5011 8.25379 1.30562 8.34515 1.14477 8.48657C0.983914 8.62798 0.864133 8.81378 0.799017 9.02288C0.739411 9.22721 0.734062 9.44468 0.783544 9.65196C0.833026 9.85923 0.935471 10.0485 1.07988 10.1994L5.71982 14.9055L4.59635 21.5882C4.55624 21.8087 4.57724 22.0367 4.65687 22.2452C4.7365 22.4537 4.87143 22.6339 5.04574 22.7647C5.21563 22.8919 5.416 22.967 5.62438 22.9815C5.83275 22.9961 6.04087 22.9495 6.22538 22.847L11.9776 19.7057L17.7073 22.8588C17.8649 22.952 18.043 23.0006 18.224 23C18.462 23.0009 18.6941 22.9226 18.8869 22.7765C19.0612 22.6457 19.1961 22.4654 19.2758 22.257C19.3554 22.0485 19.3764 21.8205 19.3363 21.5999L18.2128 14.9173L22.8528 10.2112C23.015 10.0673 23.1348 9.8781 23.1985 9.66567C23.2621 9.45324 23.2669 9.22627 23.2123 9.01111ZM16.3029 13.7172C16.1712 13.8507 16.0726 14.0159 16.0158 14.1984C15.959 14.3809 15.9457 14.5752 15.9771 14.7643L16.786 19.694L12.5618 17.3409C12.3992 17.2503 12.2179 17.2029 12.0337 17.2029C11.8496 17.2029 11.6682 17.2503 11.5057 17.3409L7.28144 19.694L8.09034 14.7643C8.12173 14.5752 8.10845 14.3809 8.05166 14.1984C7.99487 14.0159 7.89629 13.8507 7.76454 13.7172L4.39412 10.1876L9.12394 9.46996C9.30594 9.44345 9.47895 9.37059 9.62781 9.25777C9.77667 9.14496 9.89684 8.99563 9.97777 8.82287L11.9776 4.34031L14.0897 8.83463C14.1706 9.00739 14.2908 9.15672 14.4396 9.26954C14.5885 9.38235 14.7615 9.45521 14.9435 9.48172L19.6733 10.1994L16.3029 13.7172Z" fill="#433A3F"/>
</svg>
