<svg width="18" height="17" viewBox="0 0 18 17" fill="none" xmlns="http://www.w3.org/2000/svg">
<path d="M5.99735 12.8094H9.42452C9.98709 12.8094 10.544 12.6997 11.0638 12.4866C11.5835 12.2735 12.0559 11.9611 12.4537 11.5673C12.8515 11.1735 13.167 10.706 13.3823 10.1915C13.5976 9.67702 13.7083 9.12554 13.7083 8.56865V7.7206H14.5649C15.2466 7.7206 15.9005 7.45247 16.3826 6.9753C16.8646 6.49814 17.1353 5.85099 17.1353 5.17617C17.1353 4.50135 16.8646 3.85411 16.3826 3.37694C15.9005 2.89977 15.2466 2.63174 14.5649 2.63174H13.7083V1.78369C13.7083 1.55877 13.6179 1.34299 13.4573 1.18395C13.2966 1.0249 13.0787 0.935547 12.8515 0.935547H2.57057C2.34336 0.935547 2.12548 1.0249 1.96481 1.18395C1.80414 1.34299 1.71378 1.55877 1.71378 1.78369V8.56865C1.71375 9.12553 1.82449 9.67694 2.03975 10.1914C2.255 10.7059 2.57058 11.1734 2.96835 11.5672C3.36612 11.961 3.83839 12.2734 4.35812 12.4865C4.87784 12.6996 5.43479 12.8093 5.99735 12.8094V12.8094ZM13.7083 4.32812H14.5649C14.6774 4.32812 14.7889 4.35 14.8928 4.39262C14.9967 4.43524 15.0913 4.49768 15.1708 4.57643C15.2504 4.65518 15.3135 4.74876 15.3565 4.85165C15.3996 4.95454 15.4217 5.0648 15.4217 5.17617C15.4217 5.28754 15.3996 5.3978 15.3565 5.50069C15.3135 5.60358 15.2504 5.69707 15.1708 5.77582C15.0913 5.85457 14.9967 5.917 14.8928 5.95962C14.7889 6.00224 14.6774 6.02422 14.5649 6.02422H13.7083V4.32812ZM3.42697 2.63174H11.9951V8.56865C11.995 9.24345 11.7242 9.89063 11.2422 10.3678C10.7602 10.8449 10.1064 11.113 9.42471 11.1131H5.99754C5.31586 11.113 4.66209 10.8449 4.18007 10.3678C3.69804 9.89063 3.42722 9.24345 3.42717 8.56865L3.42697 2.63174ZM16.2789 14.5056H0.856792C0.62955 14.5056 0.411716 14.5949 0.251031 14.754C0.0903462 14.913 0 15.1288 0 15.3537C0 15.5787 0.0903462 15.7944 0.251031 15.9534C0.411716 16.1125 0.62955 16.2018 0.856792 16.2018H16.2789C16.5061 16.2018 16.7239 16.1125 16.8846 15.9534C17.0453 15.7944 17.1356 15.5787 17.1356 15.3537C17.1356 15.1288 17.0453 14.913 16.8846 14.754C16.7239 14.5949 16.5061 14.5056 16.2789 14.5056V14.5056Z" fill="white"/>
</svg>
