<svg width="23" height="23" viewBox="0 0 23 23" fill="none" xmlns="http://www.w3.org/2000/svg">
<path d="M11.7658 0.5C10.2905 0.5 8.82969 0.790977 7.4667 1.35632C6.10371 1.92166 4.86527 2.75029 3.82208 3.7949C1.71526 5.90459 0.531665 8.76595 0.531665 11.7495C0.521844 14.3472 1.42005 16.8664 3.07059 18.8704L0.823753 21.1203C0.667871 21.2785 0.562274 21.4794 0.520287 21.6976C0.4783 21.9159 0.501805 22.1417 0.587836 22.3465C0.681144 22.5489 0.832408 22.719 1.02243 22.8352C1.21244 22.9514 1.43265 23.0084 1.65508 22.999H11.7658C14.7453 22.999 17.6028 21.8138 19.7096 19.7041C21.8164 17.5944 23 14.7331 23 11.7495C23 8.76595 21.8164 5.90459 19.7096 3.7949C17.6028 1.68521 14.7453 0.5 11.7658 0.5ZM11.7658 20.7491H4.36252L5.40729 19.7029C5.61653 19.4921 5.73397 19.207 5.73397 18.9098C5.73397 18.6126 5.61653 18.3275 5.40729 18.1167C3.93628 16.6453 3.02023 14.7087 2.81522 12.6369C2.61022 10.565 3.12894 8.48603 4.28301 6.75419C5.43708 5.02234 7.1551 3.74476 9.14436 3.1391C11.1336 2.53345 13.2711 2.63719 15.1925 3.43265C17.1139 4.22811 18.7005 5.66608 19.6819 7.50157C20.6633 9.33705 20.9788 11.4565 20.5747 13.4988C20.1705 15.5411 19.0718 17.3799 17.4655 18.702C15.8593 20.024 13.845 20.7475 11.7658 20.7491Z" fill="#433A3F"/>
</svg>
