<svg width="23" height="23" viewBox="0 0 23 23" fill="none" xmlns="http://www.w3.org/2000/svg">
<path d="M21.7144 9.59003C21.3983 9.21051 21.0027 8.905 20.5555 8.69506C20.1084 8.48512 19.6206 8.37588 19.1267 8.37503H13.9962L14.6263 6.76629C14.8883 6.06191 14.9756 5.30447 14.8806 4.55895C14.7856 3.81343 14.5112 3.10209 14.0808 2.48593C13.6505 1.86977 13.077 1.36719 12.4098 1.02131C11.7425 0.675426 11.0012 0.496558 10.2496 0.50005C10.0332 0.500502 9.82152 0.56336 9.63992 0.681088C9.45832 0.798816 9.31454 0.966418 9.2258 1.1638L6.01927 8.37503H3.37529C2.48011 8.37503 1.62159 8.73061 0.988601 9.36354C0.35561 9.99648 0 10.8549 0 11.75V19.625C0 20.5201 0.35561 21.3786 0.988601 22.0115C1.62159 22.6444 2.48011 23 3.37529 23H17.6978C18.4874 22.9997 19.2519 22.7227 19.8583 22.217C20.4648 21.7114 20.8747 21.0091 21.0168 20.2325L22.4457 12.3575C22.5341 11.8708 22.5144 11.3707 22.388 10.8924C22.2616 10.4142 22.0317 9.96955 21.7144 9.59003ZM5.62549 20.75H3.37529C3.0769 20.75 2.79073 20.6315 2.57973 20.4205C2.36873 20.2095 2.2502 19.9234 2.2502 19.625V11.75C2.2502 11.4517 2.36873 11.1655 2.57973 10.9545C2.79073 10.7436 3.0769 10.625 3.37529 10.625H5.62549V20.75ZM20.2518 11.9525L18.8229 19.8275C18.775 20.0896 18.6356 20.3261 18.4295 20.4951C18.2235 20.664 17.9642 20.7543 17.6978 20.75H7.87569V9.73628L10.936 2.85129C11.251 2.94312 11.5435 3.09925 11.7951 3.30983C12.0468 3.5204 12.252 3.78084 12.3979 4.07472C12.5438 4.3686 12.6272 4.68953 12.6428 5.01725C12.6584 5.34498 12.6059 5.67238 12.4886 5.97879L11.8923 7.58753C11.7652 7.92757 11.7223 8.2933 11.7673 8.6535C11.8122 9.01371 11.9436 9.3577 12.1503 9.65611C12.357 9.95452 12.6328 10.1985 12.9543 10.3672C13.2757 10.5359 13.6332 10.6244 13.9962 10.625H19.1267C19.292 10.6248 19.4553 10.6609 19.605 10.7309C19.7547 10.8009 19.8872 10.903 19.993 11.03C20.1014 11.1553 20.1808 11.3029 20.2255 11.4624C20.2702 11.6218 20.2792 11.7892 20.2518 11.9525Z" fill="#433A3F"/>
</svg>
