<svg width="11" height="10" viewBox="0 0 11 10" fill="none" xmlns="http://www.w3.org/2000/svg">
<path d="M10.1154 0.490543C9.92292 0.301599 9.67878 0.168912 9.41128 0.107964C9.14378 0.0470166 8.86383 0.0602902 8.6038 0.146123L1.47353 2.44048C1.18598 2.531 0.934746 2.7052 0.754467 2.93915C0.574187 3.17309 0.473794 3.45518 0.467149 3.74644C0.460505 4.03769 0.547922 4.32382 0.717358 4.56517C0.886794 4.80651 1.12985 4.9912 1.413 5.09379L4.05364 6.06391C4.11373 6.08602 4.16843 6.11984 4.21434 6.16322C4.26025 6.2066 4.29641 6.25855 4.3205 6.31598L5.32844 8.86278C5.43107 9.13152 5.61723 9.3632 5.86157 9.52638C6.10591 9.68957 6.39655 9.77633 6.6939 9.77472H6.7292C7.03201 9.76941 7.32549 9.673 7.56857 9.49904C7.81164 9.32508 7.99212 9.08228 8.08473 8.80461L10.4683 1.93161C10.5551 1.68364 10.568 1.41716 10.5056 1.16248C10.4433 0.907801 10.3081 0.675067 10.1154 0.490543ZM9.53584 1.6256L7.12714 8.50381C7.0992 8.59085 7.04312 8.66696 6.96702 8.72108C6.89092 8.7752 6.79883 8.80451 6.70423 8.80461C6.61015 8.80606 6.51785 8.77992 6.43956 8.72966C6.36128 8.67939 6.30073 8.60739 6.26596 8.5232L5.25803 5.97641C5.18489 5.79141 5.07212 5.62329 4.92715 5.48296C4.78217 5.34263 4.6082 5.23329 4.41647 5.16191L1.77092 4.19179C1.68169 4.16035 1.60497 4.10269 1.55162 4.02697C1.49828 3.95126 1.47101 3.86127 1.47366 3.76981C1.4738 3.67872 1.50421 3.59014 1.5604 3.51687C1.61659 3.44359 1.69566 3.38943 1.78602 3.36249L8.93145 1.06839C9.01347 1.03613 9.1034 1.02745 9.19044 1.04341C9.27747 1.05936 9.35783 1.09923 9.4218 1.15825C9.48578 1.21727 9.53066 1.29284 9.55094 1.37589C9.57122 1.45894 9.56605 1.54593 9.5361 1.62622L9.53584 1.6256Z" fill="white"/>
</svg>
