<svg width="16" height="17" viewBox="0 0 16 17" fill="none" xmlns="http://www.w3.org/2000/svg">
<path d="M7.50347 14.497H4.95944C4.73452 14.497 4.51865 14.5868 4.35961 14.7467C4.20056 14.9066 4.1113 15.1233 4.1113 15.3494C4.1113 15.5755 4.20056 15.7923 4.35961 15.9522C4.51865 16.112 4.73452 16.2018 4.95944 16.2018H7.50347C7.72839 16.2018 7.94427 16.112 8.10331 15.9522C8.26235 15.7923 8.35161 15.5755 8.35161 15.3494C8.35161 15.1233 8.26235 14.9066 8.10331 14.7467C7.94427 14.5868 7.72839 14.497 7.50347 14.497V14.497ZM15.1367 11.088H14.1528C14.6407 10.3222 14.9749 9.46781 15.1367 8.57307C15.1602 8.42491 15.1449 8.27319 15.0926 8.1327C15.0402 7.99221 14.9526 7.86778 14.8381 7.77156C14.7236 7.67534 14.5861 7.61067 14.4393 7.58379C14.2924 7.55691 14.1413 7.5687 14.0004 7.61815C13.2323 7.88009 12.4132 7.955 11.6107 7.83659C10.8082 7.71817 10.0451 7.40984 9.38433 6.93705C8.72352 6.46426 8.18379 5.84046 7.80969 5.11705C7.43558 4.39364 7.23781 3.59137 7.23251 2.77608C7.24026 2.49025 7.26852 2.20528 7.31715 1.92356C7.33805 1.77573 7.32055 1.62505 7.2664 1.48601C7.21225 1.34697 7.12322 1.22431 7.00803 1.13003C6.89284 1.03575 6.75547 0.973031 6.60904 0.947901C6.46261 0.922772 6.31207 0.93612 6.17229 0.986643C5.19751 1.31407 4.31012 1.86111 3.5779 2.58607C2.84569 3.31102 2.28812 4.19467 1.94767 5.16942C1.60722 6.14417 1.49287 7.18426 1.61357 8.21018C1.73426 9.23611 2.08672 10.2207 2.64396 11.0888H1.56689C1.34197 11.0888 1.12629 11.1786 0.967246 11.3385C0.808202 11.4983 0.71875 11.7151 0.71875 11.9412C0.71875 12.1673 0.808202 12.3842 0.967246 12.544C1.12629 12.7039 1.34197 12.7937 1.56689 12.7937H15.1369C15.3618 12.7937 15.5775 12.7039 15.7366 12.544C15.8956 12.3842 15.9851 12.1673 15.9851 11.9412C15.9851 11.7151 15.8956 11.4983 15.7366 11.3385C15.5775 11.1786 15.3618 11.0888 15.1369 11.0888L15.1367 11.088ZM11.9816 11.088H4.81515C4.2617 10.5547 3.83532 9.90244 3.56783 9.1802C3.30034 8.45795 3.19876 7.68429 3.27053 6.917C3.34229 6.14971 3.58559 5.40868 3.98231 4.7492C4.37903 4.08971 4.91876 3.52891 5.56141 3.1086C5.65895 4.86217 6.42083 6.5116 7.69057 7.71812C8.96031 8.92464 10.6417 9.59664 12.3889 9.59604C12.6121 9.60879 12.8359 9.60879 13.0591 9.59604C12.7915 10.1536 12.4266 10.6586 11.982 11.087L11.9816 11.088ZM11.7436 14.497H10.8954C10.6705 14.497 10.4548 14.5868 10.2958 14.7467C10.1368 14.9066 10.0473 15.1233 10.0473 15.3494C10.0473 15.5755 10.1368 15.7923 10.2958 15.9522C10.4548 16.112 10.6705 16.2018 10.8954 16.2018H11.7436C11.9685 16.2018 12.1844 16.112 12.3434 15.9522C12.5025 15.7923 12.5917 15.5755 12.5917 15.3494C12.5917 15.1233 12.5025 14.9066 12.3434 14.7467C12.1844 14.5868 11.9685 14.497 11.7436 14.497V14.497Z" fill="white"/>
</svg>
