<svg width="18" height="18" viewBox="0 0 18 18" fill="none" xmlns="http://www.w3.org/2000/svg">
<path d="M3.97769 12.8519L3.36936 13.4602C3.2132 13.6212 3.12676 13.8372 3.12849 14.0615C3.13023 14.2858 3.22012 14.5003 3.37875 14.6589C3.53738 14.8175 3.752 14.9074 3.97632 14.9091C4.20064 14.9108 4.41659 14.8242 4.57761 14.668L5.18594 14.0598C5.32648 13.896 5.39986 13.6851 5.39159 13.4693C5.38332 13.2536 5.294 13.0489 5.14133 12.8963C4.98866 12.7436 4.78396 12.6543 4.56822 12.646C4.35248 12.6378 4.14156 12.7113 3.97769 12.8519ZM3.42962 8.56797C3.42962 8.34076 3.33926 8.12288 3.17858 7.96222C3.01791 7.80156 2.80002 7.71129 2.57279 7.71129H1.71596C1.48871 7.71129 1.27087 7.80154 1.11017 7.96222C0.949481 8.1229 0.859131 8.34083 0.859131 8.56807C0.859131 8.79531 0.949481 9.01323 1.11017 9.17392C1.27087 9.3346 1.48871 9.42484 1.71596 9.42484H2.57279C2.6853 9.42482 2.7966 9.40267 2.90054 9.35959C3.00447 9.31652 3.09904 9.25339 3.17858 9.17382C3.25812 9.09425 3.32124 8.99974 3.36427 8.89579C3.4073 8.79184 3.42945 8.68047 3.42943 8.56797H3.42962ZM9.42725 2.57063C9.65447 2.57063 9.87236 2.48036 10.033 2.3197C10.1937 2.15903 10.2841 1.94116 10.2841 1.71395V0.856777C10.2841 0.629539 10.1937 0.411611 10.033 0.250929C9.87234 0.0902468 9.6543 0 9.42705 0C9.1998 0 8.98195 0.0902468 8.82126 0.250929C8.66057 0.411611 8.57022 0.629539 8.57022 0.856777V1.71355C8.57017 1.82609 8.59234 1.93749 8.63538 2.04147C8.67841 2.14546 8.7415 2.24 8.82107 2.3196C8.90063 2.39919 8.99514 2.4623 9.09911 2.50537C9.20308 2.54845 9.31451 2.57063 9.42705 2.57063H9.42725ZM3.9773 4.32713C4.13797 4.48515 4.3546 4.57331 4.57996 4.57238C4.80532 4.57145 5.02111 4.48148 5.18046 4.32214C5.33982 4.16279 5.42979 3.94692 5.43072 3.72157C5.43166 3.49622 5.34358 3.27961 5.18555 3.11895L4.57722 2.51075C4.41325 2.37069 4.20257 2.29755 3.98708 2.306C3.77159 2.31445 3.56705 2.40386 3.41456 2.55634C3.26207 2.70883 3.17275 2.91316 3.1643 3.12864C3.15584 3.34411 3.22889 3.55487 3.36897 3.71883L3.9773 4.32713ZM14.2591 4.57551C14.4839 4.57455 14.6993 4.48538 14.859 4.32713L15.4671 3.71883C15.6398 3.57103 15.7467 3.36074 15.7644 3.13411C15.782 2.90749 15.7089 2.68316 15.5611 2.51046C15.4132 2.33777 15.2028 2.23086 14.9762 2.21326C14.7496 2.19566 14.5253 2.26875 14.3526 2.41655C14.319 2.44515 14.2878 2.47633 14.2591 2.50987L13.7106 3.11817C13.5933 3.2352 13.5126 3.38385 13.4784 3.54597C13.4441 3.70809 13.4579 3.87664 13.5179 4.0311C13.5779 4.18555 13.6814 4.31922 13.8161 4.41576C13.9508 4.51229 14.1108 4.56753 14.2763 4.57473L14.2591 4.57551ZM17.1379 7.71129H16.2811C16.0539 7.71129 15.8358 7.80154 15.6751 7.96222C15.5144 8.1229 15.4243 8.34083 15.4243 8.56807C15.4243 8.79531 15.5144 9.01323 15.6751 9.17392C15.8358 9.3346 16.0539 9.42484 16.2811 9.42484H17.1379C17.3652 9.42484 17.583 9.3346 17.7437 9.17392C17.9044 9.01323 17.9948 8.79531 17.9948 8.56807C17.9948 8.34083 17.9044 8.1229 17.7437 7.96222C17.583 7.80154 17.3652 7.71129 17.1379 7.71129V7.71129ZM9.42666 14.5653C9.19943 14.5653 8.98154 14.6556 8.82087 14.8162C8.6602 14.9769 8.56983 15.1948 8.56983 15.422V16.2789C8.56983 16.5061 8.66018 16.724 8.82087 16.8847C8.98156 17.0454 9.19941 17.1356 9.42666 17.1356C9.65391 17.1356 9.87195 17.0454 10.0326 16.8847C10.1933 16.724 10.2837 16.5061 10.2837 16.2789V15.4224C10.2837 15.3099 10.2615 15.1984 10.2185 15.0945C10.1755 14.9905 10.1124 14.896 10.0328 14.8164C9.9533 14.7368 9.85894 14.6737 9.75499 14.6306C9.65104 14.5875 9.53958 14.5653 9.42705 14.5653H9.42666ZM14.8766 12.8519C14.7138 12.7613 14.5259 12.7262 14.3415 12.752C14.157 12.7777 13.986 12.863 13.8542 12.9947C13.7225 13.1264 13.6372 13.2974 13.6114 13.4819C13.5856 13.6663 13.6207 13.8541 13.7112 14.0169L14.3197 14.6252C14.4799 14.7854 14.6972 14.8753 14.9238 14.8753C15.1503 14.8753 15.3676 14.7854 15.5278 14.6252C15.688 14.465 15.7779 14.2477 15.7779 14.0212C15.7779 13.7947 15.688 13.5775 15.5278 13.4173L14.8766 12.8519ZM9.42666 3.85609C8.49459 3.85609 7.58341 4.13245 6.80842 4.65025C6.03344 5.16805 5.42952 5.90403 5.07285 6.7651C4.71617 7.62616 4.62273 8.57365 4.80458 9.48775C4.98644 10.4018 5.43535 11.2415 6.09443 11.9005C6.75351 12.5595 7.59325 13.0083 8.50741 13.1901C9.42157 13.3719 10.369 13.2786 11.2301 12.9219C12.0912 12.5652 12.8273 11.9612 13.3451 11.1862C13.8629 10.4113 14.1392 9.50017 14.1391 8.56817C14.1392 7.94937 14.0175 7.33661 13.7807 6.7649C13.5439 6.1932 13.1967 5.67372 12.7591 5.23614C12.3215 4.79857 11.8021 4.45145 11.2303 4.21462C10.6586 3.9778 10.0459 3.85592 9.42705 3.85589L9.42666 3.85609ZM9.42666 11.5668C8.83354 11.5668 8.2537 11.3909 7.76054 11.0614C7.26739 10.7319 6.88297 10.2636 6.656 9.71569C6.42902 9.16775 6.36966 8.56484 6.48537 7.98315C6.60109 7.40147 6.88681 6.86711 7.3062 6.44774C7.7256 6.02837 8.25989 5.74277 8.84161 5.62706C9.42333 5.51136 10.0263 5.57081 10.5743 5.79777C11.1222 6.02474 11.5905 6.40903 11.9201 6.90215C12.2496 7.39528 12.4255 7.97509 12.4255 8.56817C12.4254 9.36336 12.1096 10.126 11.5473 10.6883C10.985 11.2506 10.2223 11.5665 9.42705 11.5666L9.42666 11.5668Z" fill="white"/>
</svg>
